<?xml version="1.0" encoding="UTF-8"?>
<svg version="1.1" xmlns="http://www.w3.org/2000/svg" width="527" height="473">
<path d="M0 0 C8.68486649 -0.90712339 15.08362104 0.49983197 22 6 C26.21502524 10.66256653 28.33398639 15.26602363 28.625 21.5625 C28.23985842 28.03654651 26.12945393 33.30269169 22.125 38.375 C19.57875358 40.32212961 16.87549882 41.59750875 14 43 C14.01160156 44.27617188 14.02320313 45.55234375 14.03515625 46.8671875 C14.04453417 48.53645687 14.05363437 50.20572783 14.0625 51.875 C14.07087891 52.71675781 14.07925781 53.55851562 14.08789062 54.42578125 C14.09111328 55.23144531 14.09433594 56.03710938 14.09765625 56.8671875 C14.10289307 57.61081543 14.10812988 58.35444336 14.11352539 59.12060547 C14 61 14 61 13 63 C13.58523438 62.95359375 14.17046875 62.9071875 14.7734375 62.859375 C39.72968383 61.81016344 67.10289596 74.44601182 86 90 C86.72574219 90.57363281 87.45148438 91.14726562 88.19921875 91.73828125 C106.79712866 107.04775915 118.58700698 130.64676983 123 154 C123 155.32 123 156.64 123 158 C123.66386719 158.14695313 124.32773437 158.29390625 125.01171875 158.4453125 C131.33562525 160.05167707 134.50088948 161.42329261 138 167 C144.54238211 181.06612153 142.48712364 205.96334409 140 221 C137.99295962 225.65900232 136.27312065 228.21318218 132 231 C131.28376465 231.24186035 130.5675293 231.4837207 129.82958984 231.73291016 C125.08154506 233.28095633 125.08154506 233.28095633 121.97412109 236.93994141 C121.37883253 239.37951922 121.03018057 241.75461247 120.75 244.25 C120.46489289 246.06354339 120.17313537 247.87605279 119.875 249.6875 C119.73449219 250.58726562 119.59398437 251.48703125 119.44921875 252.4140625 C114.9869486 278.10121763 98.34032802 305.35087973 77.3125 320.5625 C49.49975634 339.16173415 18.42770566 348.82734776 -15.1875 342.8125 C-28.9176554 340.07374142 -40.9893087 334.98408408 -53 328 C-53.97839844 327.44441406 -54.95679688 326.88882812 -55.96484375 326.31640625 C-63.53454382 321.78761869 -69.68923119 316.09346831 -76 310 C-76.68191406 309.36964844 -77.36382812 308.73929687 -78.06640625 308.08984375 C-96.52018425 290.62687262 -106.77151213 262.68094013 -110 238 C-110 236.68 -110 235.36 -110 234 C-110.825 233.95875 -111.65 233.9175 -112.5 233.875 C-118.32793414 232.41801646 -122.54261277 229.11556211 -125.9375 224.1875 C-128.83084087 215.5074774 -128.21759828 205.92191408 -128.24023438 196.86181641 C-128.24997858 194.50517982 -128.2811005 192.14940317 -128.3125 189.79296875 C-128.38538 179.52394536 -128.10819754 170.36491954 -120.828125 162.44140625 C-117.61341429 159.9067305 -113.93930588 158.91917137 -110 158 C-109.97873047 157.195625 -109.97873047 157.195625 -109.95703125 156.375 C-108.46838296 131.91288759 -93.70798128 107.48999993 -75.71289062 91.44238281 C-61.02723302 79.07595392 -44.29803644 71.36867985 -26 66 C-25.33967773 65.80567383 -24.67935547 65.61134766 -23.99902344 65.41113281 C-19.00291503 64.0454146 -14.16252399 63.59044552 -9 63.375 C-5.04 63.189375 -5.04 63.189375 -1 63 C-1 56.07 -1 49.14 -1 42 C-2.65 41.67 -4.3 41.34 -6 41 C-11.06630072 37.58800156 -14.25045863 33.92302832 -16 28 C-17.0299904 20.93445837 -16.50670214 15.00160336 -12.6328125 8.9140625 C-9.95175091 5.77119126 -6.81044673 3.58635753 -3 2 C-2.01 2 -1.02 2 0 2 C0 1.34 0 0.68 0 0 Z M-64.66015625 110.66015625 C-65.43230469 111.43230469 -66.20445312 112.20445312 -67 113 C-67.78246094 113.78246094 -68.56492187 114.56492187 -69.37109375 115.37109375 C-77.86920828 124.32779119 -83.27093665 134.29004405 -87 146 C-87.27585937 146.763125 -87.55171875 147.52625 -87.8359375 148.3125 C-96.42146979 173.47405997 -96.36700298 215.78858516 -85 240 C-75.13290183 259.9556524 -57.93404158 274.71112503 -37 282 C-22.47625178 286.39737417 -8.04676237 288.37950642 7.125 288.3125 C7.80220093 288.31001251 8.47940186 288.30752502 9.17712402 288.30496216 C35.52807052 288.15581317 62.09314388 282.55457364 82 264 C97.53684732 248.15572648 104.10043896 228.92053305 104.203125 206.921875 C104.20882507 205.95582336 104.21452515 204.98977173 104.22039795 203.9944458 C104.22981595 201.95040977 104.23636916 199.90635877 104.24023438 197.86230469 C104.24983952 194.80114504 104.28085154 191.74068704 104.3125 188.6796875 C104.46426281 160.83643125 99.78049638 135.41280376 79.765625 114.7578125 C43.40500838 78.49990948 -26.3638614 74.35005497 -64.66015625 110.66015625 Z " fill="#0387E7" transform="translate(261,53)"/>
<path d="M0 0 C3.35188938 3.49657525 7.171875 8.202427 7.171875 13.265625 C16.411875 13.265625 25.651875 13.265625 35.171875 13.265625 C35.501875 9.635625 35.831875 6.005625 36.171875 2.265625 C39.25635434 -2.08893407 43.17390338 -4.10567587 48.171875 -5.734375 C52.89606429 -6.27096653 57.60982385 -6.2498944 62.35961914 -6.23535156 C64.60107747 -6.2343786 66.83911212 -6.27607806 69.08007812 -6.3203125 C75.97791156 -6.37873207 82.00027874 -6.41243885 87.80883789 -2.20117188 C90.69057573 0.89993522 91.42287219 3.77375584 91.5859375 7.93359375 C91.62460937 8.82755859 91.66328125 9.72152344 91.703125 10.64257812 C91.7340625 11.57005859 91.765 12.49753906 91.796875 13.453125 C91.83554687 14.36126953 91.87421875 15.26941406 91.9140625 16.20507812 C92.95190644 42.09557784 92.95190644 42.09557784 88.046875 49.453125 C82.44646459 52.98381852 77.77116569 53.265625 71.171875 53.265625 C71.171875 59.865625 71.171875 66.465625 71.171875 73.265625 C74.471875 73.265625 77.771875 73.265625 81.171875 73.265625 C84.90653696 74.54941505 87.38831382 75.48206382 90.171875 78.265625 C92.44731571 86.77686317 92.50816223 95.5791801 92.484375 104.328125 C92.50048828 105.51728516 92.51660156 106.70644531 92.53320312 107.93164062 C92.54297486 125.72597015 92.54297486 125.72597015 86.671875 131.890625 C76.27586462 137.60843071 57.65646457 136.28705587 46.171875 134.265625 C41.89933486 132.71867081 39.49872618 131.18453224 37.171875 127.265625 C34.38443251 118.90329753 34.93382398 109.01941011 35.171875 100.265625 C35.18444336 99.56679199 35.19701172 98.86795898 35.20996094 98.14794922 C35.25894164 95.76938638 35.33753894 93.39317896 35.421875 91.015625 C35.43589355 90.25870361 35.44991211 89.50178223 35.46435547 88.72192383 C35.70814277 83.20274924 37.01354358 79.82181051 40.171875 75.265625 C45.53930743 72.17935135 52.17294164 73.13231537 58.171875 73.265625 C58.171875 66.665625 58.171875 60.065625 58.171875 53.265625 C55.201875 53.265625 52.231875 53.265625 49.171875 53.265625 C45.02364573 52.48561608 41.3473943 51.36530434 38.234375 48.453125 C34.24391546 40.237473 35.39109337 37.41578622 36.171875 27.265625 C21.816875 27.760625 21.816875 27.760625 7.171875 28.265625 C6.511875 31.235625 5.851875 34.205625 5.171875 37.265625 C2.04665363 43.17718832 -3.10974899 48.88100451 -9.4296875 51.234375 C-11.88397116 51.98103031 -14.33572395 52.65976467 -16.828125 53.265625 C-16.498125 53.925625 -16.168125 54.585625 -15.828125 55.265625 C-15.73910007 56.62407693 -15.71052368 57.98678474 -15.71459961 59.34814453 C-15.71467514 60.18886505 -15.71475067 61.02958557 -15.71482849 61.89578247 C-15.71998978 62.80415863 -15.72515106 63.71253479 -15.73046875 64.6484375 C-15.7318837 65.57784149 -15.73329865 66.50724548 -15.73475647 67.46481323 C-15.74036447 70.44011624 -15.75291832 73.41534464 -15.765625 76.390625 C-15.77063897 78.40494683 -15.77520205 80.41926984 -15.77929688 82.43359375 C-15.78948662 87.3776562 -15.80906047 92.32155685 -15.828125 97.265625 C-8.238125 97.265625 -0.648125 97.265625 7.171875 97.265625 C7.171875 95.615625 7.171875 93.965625 7.171875 92.265625 C7.831875 91.605625 8.491875 90.945625 9.171875 90.265625 C17.83804085 91.13224158 25.01460875 95.54654835 32.171875 100.265625 C33.66976994 103.26141489 33.71434779 104.93845855 33.171875 108.265625 C31.00019466 110.64097353 28.42876108 112.28025769 25.734375 114.015625 C24.70280273 114.73685547 24.70280273 114.73685547 23.65039062 115.47265625 C18.92165932 118.63100888 13.96609502 121.08643015 8.171875 121.265625 C7.181875 120.275625 7.181875 120.275625 6.171875 119.265625 C6.546875 115.640625 6.546875 115.640625 7.171875 112.265625 C4.07775836 111.34821986 1.39904024 111.18262445 -1.8203125 111.2734375 C-2.77292969 111.29019531 -3.72554687 111.30695313 -4.70703125 111.32421875 C-6.6968075 111.3683207 -8.6864247 111.42034365 -10.67578125 111.48046875 C-17.41589973 111.58052449 -21.52545646 110.65088561 -27.078125 106.640625 C-31.50630943 100.63094613 -31.10830155 92.37014792 -31.0234375 85.19921875 C-31.0206076 84.27971939 -31.01777771 83.36022003 -31.01486206 82.41285706 C-31.00377084 79.50947407 -30.97868763 76.60641291 -30.953125 73.703125 C-30.94308088 71.72070762 -30.93395755 69.73828534 -30.92578125 67.75585938 C-30.90386786 62.92565945 -30.86941581 58.09569657 -30.828125 53.265625 C-31.65376953 52.87165527 -32.47941406 52.47768555 -33.33007812 52.07177734 C-34.95333008 51.282146 -34.95333008 51.282146 -36.609375 50.4765625 C-37.68251953 49.95884277 -38.75566406 49.44112305 -39.86132812 48.90771484 C-43.91753827 46.66264659 -46.34595237 44.12494989 -48.828125 40.265625 C-49.22644531 39.68296875 -49.62476563 39.1003125 -50.03515625 38.5 C-54.06916033 31.71489066 -54.69229208 23.69381037 -53.19921875 16.04296875 C-50.4649562 6.99358936 -46.25400308 -0.07325096 -37.828125 -4.734375 C-24.22730612 -10.8442093 -11.26887854 -9.68980002 0 0 Z " fill="#232829" transform="translate(246.828125,180.734375)"/>
<path d="M0 0 C0.66 0 1.32 0 2 0 C1.80557237 3.49969734 1.23103699 4.77520726 -1.3125 7.25 C-6.01245655 10.11385559 -11.66471428 9.76287619 -17 10 C-17 16.6 -17 23.2 -17 30 C-13.7 30 -10.4 30 -7 30 C-3.26533804 31.28379005 -0.78356118 32.21643882 2 35 C4.27544071 43.51123817 4.33628723 52.3135551 4.3125 61.0625 C4.32861328 62.25166016 4.34472656 63.44082031 4.36132812 64.66601562 C4.37109986 82.46034515 4.37109986 82.46034515 -1.5 88.625 C-11.89601038 94.34280571 -30.51541043 93.02143087 -42 91 C-46.27254014 89.45304581 -48.67314882 87.91890724 -51 84 C-53.78744249 75.63767253 -53.23805102 65.75378511 -53 57 C-52.98743164 56.30116699 -52.97486328 55.60233398 -52.96191406 54.88232422 C-52.91293336 52.50376138 -52.83433606 50.12755396 -52.75 47.75 C-52.73598145 46.99307861 -52.72196289 46.23615723 -52.70751953 45.45629883 C-52.46373223 39.93712424 -51.15833142 36.55618551 -48 32 C-42.63256757 28.91372635 -35.99893336 29.86669037 -30 30 C-30 23.4 -30 16.8 -30 10 C-32.97 10 -35.94 10 -39 10 C-41.77734375 9.484375 -41.77734375 9.484375 -43.9375 8.75 C-44.66839844 8.51796875 -45.39929688 8.2859375 -46.15234375 8.046875 C-48.4684236 6.73459297 -49.03863016 5.43614139 -50 3 C-49.01 3 -48.02 3 -47 3 C-46.67 3.66 -46.34 4.32 -46 5 C-44.78441406 5.06058594 -43.56882812 5.12117187 -42.31640625 5.18359375 C-40.73175772 5.26798332 -39.14712298 5.3526321 -37.5625 5.4375 C-36.76005859 5.47681641 -35.95761719 5.51613281 -35.13085938 5.55664062 C-29.11328125 5.88671875 -29.11328125 5.88671875 -28 7 C-27.84344973 8.48638992 -27.74933057 9.97949127 -27.68359375 11.47265625 C-27.64169922 12.37177734 -27.59980469 13.27089844 -27.55664062 14.19726562 C-27.51732422 15.14279297 -27.47800781 16.08832031 -27.4375 17.0625 C-27.39431641 18.01189453 -27.35113281 18.96128906 -27.30664062 19.93945312 C-27.20020724 22.29281353 -27.09818992 24.64628354 -27 27 C-26.34 27 -25.68 27 -25 27 C-25 27.66 -25 28.32 -25 29 C-23.68 28.67 -22.36 28.34 -21 28 C-21 28.99 -21 29.98 -21 31 C-20.34 31 -19.68 31 -19 31 C-19 23.08 -19 15.16 -19 7 C-16.48677688 5.74338844 -14.49082323 5.78432284 -11.6875 5.625 C-7.40445965 5.27135447 -4.40026722 4.83355602 -1 2 C-0.67 1.34 -0.34 0.68 0 0 Z " fill="#202929" transform="translate(335,224)"/>
<path d="M0 0 C4.13191669 2.97466935 7.58973725 6.17114266 9.640625 10.87109375 C10.40076102 17.71231796 10.60843499 23.99285672 6.640625 29.87109375 C6.08375 30.81984375 5.526875 31.76859375 4.953125 32.74609375 C4.52 33.44734375 4.086875 34.14859375 3.640625 34.87109375 C5.290625 35.53109375 6.940625 36.19109375 8.640625 36.87109375 C7.980625 38.19109375 7.320625 39.51109375 6.640625 40.87109375 C7.960625 41.53109375 9.280625 42.19109375 10.640625 42.87109375 C2.378666 47.27883862 2.378666 47.27883862 -2.359375 47.87109375 C-2.029375 48.53109375 -1.699375 49.19109375 -1.359375 49.87109375 C-1.27035007 51.22954568 -1.24177368 52.59225349 -1.24584961 53.95361328 C-1.24592514 54.7943338 -1.24600067 55.63505432 -1.24607849 56.50125122 C-1.25382042 57.86381546 -1.25382042 57.86381546 -1.26171875 59.25390625 C-1.2631337 60.18331024 -1.26454865 61.11271423 -1.26600647 62.07028198 C-1.27161447 65.04558499 -1.28416832 68.02081339 -1.296875 70.99609375 C-1.30188897 73.01041558 -1.30645205 75.02473859 -1.31054688 77.0390625 C-1.32073662 81.98312495 -1.34031047 86.9270256 -1.359375 91.87109375 C6.230625 91.87109375 13.820625 91.87109375 21.640625 91.87109375 C21.640625 90.22109375 21.640625 88.57109375 21.640625 86.87109375 C22.300625 86.21109375 22.960625 85.55109375 23.640625 84.87109375 C32.30679085 85.73771033 39.48335875 90.1520171 46.640625 94.87109375 C48.13851994 97.86688364 48.18309779 99.5439273 47.640625 102.87109375 C45.46894466 105.24644228 42.89751108 106.88572644 40.203125 108.62109375 C39.17155273 109.34232422 39.17155273 109.34232422 38.11914062 110.078125 C33.39040932 113.23647763 28.43484502 115.6918989 22.640625 115.87109375 C21.650625 114.88109375 21.650625 114.88109375 20.640625 113.87109375 C21.015625 110.24609375 21.015625 110.24609375 21.640625 106.87109375 C18.54650836 105.95368861 15.86779024 105.7880932 12.6484375 105.87890625 C11.69582031 105.89566406 10.74320313 105.91242188 9.76171875 105.9296875 C7.7719425 105.97378945 5.7823253 106.0258124 3.79296875 106.0859375 C-2.94714973 106.18599324 -7.05670646 105.25635436 -12.609375 101.24609375 C-17.1665815 95.06131351 -16.6357114 86.50995295 -16.5546875 79.1484375 C-16.5518576 78.16235001 -16.54902771 77.17626251 -16.54611206 76.16029358 C-16.53501005 73.04293138 -16.50992445 69.92586758 -16.484375 66.80859375 C-16.47433229 64.6816448 -16.46520871 62.55469131 -16.45703125 60.42773438 C-16.43510348 55.24207435 -16.40064346 50.05663446 -16.359375 44.87109375 C-18.999375 43.88109375 -21.639375 42.89109375 -24.359375 41.87109375 C-24.029375 40.22109375 -23.699375 38.57109375 -23.359375 36.87109375 C-20.884375 36.37609375 -20.884375 36.37609375 -18.359375 35.87109375 C-19.39272904 33.66894606 -20.48585588 31.6872705 -21.8671875 29.6796875 C-26.12052257 23.44351749 -27.7373063 18.40220103 -26.359375 10.87109375 C-24.00403064 5.97922469 -20.6420292 3.06030433 -16.359375 -0.12890625 C-11.06867989 -1.89247129 -5.14008242 -2.4594103 0 0 Z " fill="#20262A" transform="translate(232.359375,186.12890625)"/>
<path d="M0 0 C8.68486649 -0.90712339 15.08362104 0.49983197 22 6 C26.21502524 10.66256653 28.33398639 15.26602363 28.625 21.5625 C28.23985842 28.03654651 26.12945393 33.30269169 22.125 38.375 C20 40 20 40 14 43 C14 48.94 14 54.88 14 61 C13.34 61 12.68 61 12 61 C12 61.99 12 62.98 12 64 C8.37 64 4.74 64 1 64 C-1.25 58.375 -1.25 58.375 -1.1953125 54.79296875 C-1.18886719 54.04208984 -1.18242187 53.29121094 -1.17578125 52.51757812 C-1.15902344 51.74865234 -1.14226562 50.97972656 -1.125 50.1875 C-1.11597656 49.39923828 -1.10695313 48.61097656 -1.09765625 47.79882812 C-1.07422504 45.86575334 -1.03835838 43.9328362 -1 42 C-2.14275391 41.81630859 -2.14275391 41.81630859 -3.30859375 41.62890625 C-7.79014592 40.58169304 -10.57942146 37.88827671 -13.26953125 34.3125 C-16.67750123 28.53219756 -16.97385946 22.54985125 -16 16 C-13.94029889 9.69750443 -10.54702583 6.05927368 -4.8671875 2.77734375 C-3 2 -3 2 0 2 C0 1.34 0 0.68 0 0 Z " fill="#1F272B" transform="translate(261,53)"/>
<path d="M0 0 C1.29349365 0.00523682 2.5869873 0.01047363 3.91967773 0.01586914 C4.9496714 0.01799156 4.9496714 0.01799156 6.00047302 0.02015686 C8.20144949 0.0257706 10.40232557 0.03832532 12.60327148 0.05102539 C14.09220231 0.05603863 15.58113473 0.06060184 17.07006836 0.06469727 C20.72700223 0.07574446 24.38387707 0.09301826 28.04077148 0.11352539 C28.06548887 4.90071231 28.08363974 9.68786209 28.09570312 14.47509766 C28.10073213 16.10368497 28.10755614 17.73226776 28.11621094 19.36083984 C28.12833918 21.70159011 28.13401411 24.04228069 28.13842773 26.38305664 C28.14358902 27.11128128 28.14875031 27.83950592 28.15406799 28.58979797 C28.15441428 31.70954828 28.03532752 34.12985727 27.04077148 37.11352539 C22.78662526 37.13818161 18.53251651 37.15636438 14.27832031 37.16845703 C12.83007076 37.1734964 11.38182632 37.18032792 9.93359375 37.18896484 C7.8560256 37.20104786 5.77852451 37.2067575 3.70092773 37.21118164 C2.44932861 37.21641846 1.19772949 37.22165527 -0.09179688 37.22705078 C-2.95922852 37.11352539 -2.95922852 37.11352539 -3.95922852 36.11352539 C-4.06014327 33.53163093 -4.0989435 30.97706039 -4.09204102 28.39477539 C-4.09299774 27.62170044 -4.09395447 26.84862549 -4.09494019 26.05212402 C-4.09562192 24.41454996 -4.09376808 22.7769732 -4.08959961 21.1394043 C-4.08425123 18.62420619 -4.08954478 16.10918666 -4.09594727 13.59399414 C-4.09528648 12.00675416 -4.09400532 10.41951429 -4.09204102 8.83227539 C-4.09406525 8.07499146 -4.09608948 7.31770752 -4.09817505 6.53747559 C-4.06933304 0.15611252 -4.06933304 0.15611252 0 0 Z " fill="#78AA32" transform="translate(298.959228515625,265.886474609375)"/>
<path d="M0 0 C10.89 0 21.78 0 33 0 C33.020625 5.07375 33.04125 10.1475 33.0625 15.375 C33.071604 16.97520996 33.08070801 18.57541992 33.09008789 20.22412109 C33.09258545 21.47789551 33.09508301 22.73166992 33.09765625 24.0234375 C33.10289307 25.31169434 33.10812988 26.59995117 33.11352539 27.92724609 C33 31 33 31 32 33 C21.44 33 10.88 33 0 33 C0 22.11 0 11.22 0 0 Z " fill="#F4BF5A" transform="translate(294,188)"/>
<path d="M0 0 C5.09200534 3.66586099 9.0417481 7.44116239 10.15625 13.82421875 C10.6001876 20.18732435 10.14422139 24.1542606 5.890625 29.05859375 C1.00443955 33.9357307 -2.36926432 35.1721598 -9.296875 35.24609375 C-11.10478516 35.28863281 -11.10478516 35.28863281 -12.94921875 35.33203125 C-17.75533348 34.68240749 -19.97071408 32.6026339 -22.94140625 28.8984375 C-26.45061855 22.93834677 -27.50292059 17.74305464 -26.359375 10.87109375 C-24.00403064 5.97922469 -20.6420292 3.06030433 -16.359375 -0.12890625 C-11.06867989 -1.89247129 -5.14008242 -2.4594103 0 0 Z " fill="#F2BE5A" transform="translate(232.359375,186.12890625)"/>
<path d="M0 0 C0 0.66 0 1.32 0 2 C-6.6038735 6.06905337 -15.04577008 11 -23 11 C-23 11.66 -23 12.32 -23 13 C-31.6433121 15.19745223 -31.6433121 15.19745223 -36 16 C-36.87317871 16.16983398 -37.74635742 16.33966797 -38.64599609 16.51464844 C-42.45585301 17.06596563 -46.19837246 17.18041844 -50.0390625 17.203125 C-51.18222427 17.21167511 -51.18222427 17.21167511 -52.34848022 17.22039795 C-53.95707836 17.22980604 -55.56569541 17.23636517 -57.17431641 17.24023438 C-59.59703592 17.24988857 -62.01888714 17.28092981 -64.44140625 17.3125 C-72.48556491 17.36628583 -79.7513984 17.06024686 -87.52661133 14.70239258 C-90.06559665 13.98137187 -92.43686553 13.6660318 -95.0625 13.4375 C-99 13 -99 13 -102 11 C-102 10.34 -102 9.68 -102 9 C-101.28457031 9.12117188 -100.56914062 9.24234375 -99.83203125 9.3671875 C-98.33736328 9.61855469 -98.33736328 9.61855469 -96.8125 9.875 C-95.84957031 10.03742188 -94.88664063 10.19984375 -93.89453125 10.3671875 C-92.60933594 10.57601563 -91.32414063 10.78484375 -90 11 C-89.07767578 11.16685303 -88.15535156 11.33370605 -87.20507812 11.50561523 C-78.72394118 12.95705444 -70.47137742 13.35046609 -61.875 13.3125 C-61.19779907 13.31001251 -60.52059814 13.30752502 -59.82287598 13.30496216 C-40.05016419 13.19304663 -22.39304153 10.23764374 -4.58203125 1.28125 C-2 0 -2 0 0 0 Z " fill="#3197DB" transform="translate(330,327)"/>
<path d="M0 0 C10.89 0 21.78 0 33 0 C33.020625 5.07375 33.04125 10.1475 33.0625 15.375 C33.071604 16.97520996 33.08070801 18.57541992 33.09008789 20.22412109 C33.09258545 21.47789551 33.09508301 22.73166992 33.09765625 24.0234375 C33.10289307 25.31169434 33.10812988 26.59995117 33.11352539 27.92724609 C33 31 33 31 32 33 C21.44 33 10.88 33 0 33 C0 22.11 0 11.22 0 0 Z M3 2 C2.67 11.57 2.34 21.14 2 31 C11.57 31 21.14 31 31 31 C31 21.43 31 11.86 31 2 C21.76 2 12.52 2 3 2 Z " fill="#C7A45C" transform="translate(294,188)"/>
<path d="M0 0 C0.33 0 0.66 0 1 0 C1 11.88 1 23.76 1 36 C8.59 36 16.18 36 24 36 C24 34.35 24 32.7 24 31 C24.66 30.34 25.32 29.68 26 29 C32.25012159 29.22043997 38.27350492 31.98183525 43 36 C43 36.66 43 37.32 43 38 C40.69 37.67 38.38 37.34 36 37 C36 36.34 36 35.68 36 35 C32.7 34.01 29.4 33.02 26 32 C26.66 34.64 27.32 37.28 28 40 C24.06251542 40.02898816 20.12505821 40.04679464 16.1875 40.0625 C15.06794922 40.07087891 13.94839844 40.07925781 12.79492188 40.08789062 C11.18520508 40.09272461 11.18520508 40.09272461 9.54296875 40.09765625 C8.55321045 40.10289307 7.56345215 40.10812988 6.54370117 40.11352539 C4 40 4 40 1 39 C-0.93377673 36.09933491 -1.27507614 35.20923972 -1.5625 31.9375 C-1.74586541 28.22018139 -1.74586541 28.22018139 -3 26 C-2.73524994 22.98184927 -2.38322774 20.00450546 -2 17 C-1.73412373 14.76412715 -1.4730281 12.52772192 -1.2121582 10.29125977 C-0.81181412 6.86039997 -0.40564226 3.43023699 0 0 Z " fill="#404346" transform="translate(230,242)"/>
<path d="M0 0 C0.66 0 1.32 0 2 0 C1.80557237 3.49969734 1.23103699 4.77520726 -1.3125 7.25 C-6.01245655 10.11385559 -11.66471428 9.76287619 -17 10 C-17 16.6 -17 23.2 -17 30 C-13.7 30 -10.4 30 -7 30 C-3.26533804 31.28379005 -0.78356118 32.21643882 2 35 C2 36.32 2 37.64 2 39 C1.34 39 0.68 39 0 39 C-0.5775 38.195625 -1.155 37.39125 -1.75 36.5625 C-4.739977 33.32564417 -8.07961522 33.46940756 -12.3125 33.1875 C-15.6228125 33.0946875 -15.6228125 33.0946875 -19 33 C-19 24.42 -19 15.84 -19 7 C-16.48677688 5.74338844 -14.49082323 5.78432284 -11.6875 5.625 C-7.40445965 5.27135447 -4.40026722 4.83355602 -1 2 C-0.67 1.34 -0.34 0.68 0 0 Z " fill="#2C3133" transform="translate(335,224)"/>
<path d="M0 0 C1.29349365 0.00523682 2.5869873 0.01047363 3.91967773 0.01586914 C4.9496714 0.01799156 4.9496714 0.01799156 6.00047302 0.02015686 C8.20144949 0.0257706 10.40232557 0.03832532 12.60327148 0.05102539 C14.09220231 0.05603863 15.58113473 0.06060184 17.07006836 0.06469727 C20.72700223 0.07574446 24.38387707 0.09301826 28.04077148 0.11352539 C28.06548887 4.90071231 28.08363974 9.68786209 28.09570312 14.47509766 C28.10073213 16.10368497 28.10755614 17.73226776 28.11621094 19.36083984 C28.12833918 21.70159011 28.13401411 24.04228069 28.13842773 26.38305664 C28.14358902 27.11128128 28.14875031 27.83950592 28.15406799 28.58979797 C28.15441428 31.70954828 28.03532752 34.12985727 27.04077148 37.11352539 C22.78662526 37.13818161 18.53251651 37.15636438 14.27832031 37.16845703 C12.83007076 37.1734964 11.38182632 37.18032792 9.93359375 37.18896484 C7.8560256 37.20104786 5.77852451 37.2067575 3.70092773 37.21118164 C2.44932861 37.21641846 1.19772949 37.22165527 -0.09179688 37.22705078 C-2.95922852 37.11352539 -2.95922852 37.11352539 -3.95922852 36.11352539 C-4.06014327 33.53163093 -4.0989435 30.97706039 -4.09204102 28.39477539 C-4.09299774 27.62170044 -4.09395447 26.84862549 -4.09494019 26.05212402 C-4.09562192 24.41454996 -4.09376808 22.7769732 -4.08959961 21.1394043 C-4.08425123 18.62420619 -4.08954478 16.10918666 -4.09594727 13.59399414 C-4.09528648 12.00675416 -4.09400532 10.41951429 -4.09204102 8.83227539 C-4.09406525 8.07499146 -4.09608948 7.31770752 -4.09817505 6.53747559 C-4.06933304 0.15611252 -4.06933304 0.15611252 0 0 Z M-2.95922852 1.11352539 C-2.95922852 12.33352539 -2.95922852 23.55352539 -2.95922852 35.11352539 C0.31638701 35.93242927 2.58772523 36.24187587 5.88452148 36.24633789 C6.80104492 36.24762695 7.71756836 36.24891602 8.66186523 36.25024414 C9.6119043 36.24637695 10.56194336 36.24250977 11.54077148 36.23852539 C12.96583008 36.24432617 12.96583008 36.24432617 14.41967773 36.25024414 C15.79446289 36.24831055 15.79446289 36.24831055 17.19702148 36.24633789 C18.03040039 36.24520996 18.8637793 36.24408203 19.72241211 36.24291992 C22.35144803 36.16909117 22.35144803 36.16909117 26.04077148 35.11352539 C26.04077148 24.55352539 26.04077148 13.99352539 26.04077148 3.11352539 C21.61931159 1.34494143 19.80416863 0.8700666 15.30249023 0.91821289 C14.34044678 0.92320801 13.37840332 0.92820312 12.38720703 0.93334961 C10.57603394 0.96066162 10.57603394 0.96066162 8.72827148 0.98852539 C2.94295898 1.05040039 2.94295898 1.05040039 -2.95922852 1.11352539 Z " fill="#678C39" transform="translate(298.959228515625,265.886474609375)"/>
<path d="M0 0 C5.61 0 11.22 0 17 0 C13.53175936 2.31216043 10.17727359 3.11117593 6.1875 4.0625 C5.48818359 4.23587891 4.78886719 4.40925781 4.06835938 4.58789062 C-13.87742141 8.96941428 -33.07502226 8.19414521 -51 4 C-51 3.67 -51 3.34 -51 3 C-47.68751813 2.97111854 -44.37506833 2.95324201 -41.0625 2.9375 C-39.64420898 2.92493164 -39.64420898 2.92493164 -38.19726562 2.91210938 C-36.84858398 2.90727539 -36.84858398 2.90727539 -35.47265625 2.90234375 C-34.22367554 2.89448853 -34.22367554 2.89448853 -32.94946289 2.88647461 C-31 3 -31 3 -30 4 C-28.61741773 4.09902278 -27.22987235 4.13079611 -25.84375 4.1328125 C-24.98523438 4.13410156 -24.12671875 4.13539063 -23.2421875 4.13671875 C-21.88480469 4.13091797 -21.88480469 4.13091797 -20.5 4.125 C-19.62601562 4.12886719 -18.75203125 4.13273437 -17.8515625 4.13671875 C-12.15792872 4.12827122 -6.64767541 3.72317795 -1 3 C-0.67 2.01 -0.34 1.02 0 0 Z " fill="#4EA1DC" transform="translate(289,390)"/>
<path d="M0 0 C-3.43348272 1.14449424 -5.85384473 0.82923105 -9.375 0.125 C-27.74972153 -3.13717882 -45.66378558 -1.57306551 -64 1 C-64 0.34 -64 -0.32 -64 -1 C-62.35 -1 -60.7 -1 -59 -1 C-59 -1.66 -59 -2.32 -59 -3 C-56.17762908 -4.41118546 -53.71155647 -4.21920468 -50.55859375 -4.31640625 C-48.59889648 -4.37924805 -48.59889648 -4.37924805 -46.59960938 -4.44335938 C-45.91535889 -4.46293701 -45.2311084 -4.48251465 -44.52612305 -4.50268555 C-42.46971617 -4.56157739 -40.41359364 -4.62680779 -38.35742188 -4.69335938 C-24.61961479 -5.11740732 -12.87809597 -5.24663169 0 0 Z " fill="#1F9FE0" transform="translate(299,142)"/>
<path d="M0 0 C2.48587357 0.33144981 3.67459316 0.61261091 5.3125 2.5625 C6.3486671 6.23618337 5.62521647 9.24870119 5 13 C5.99 13.33 6.98 13.66 8 14 C8 34.79 8 55.58 8 77 C7.67 77 7.34 77 7 77 C6.98541748 75.70602295 6.97083496 74.4120459 6.95581055 73.07885742 C6.89692753 68.18244593 6.81971908 63.28645222 6.73754883 58.39038086 C6.70471559 56.28921391 6.6765611 54.18796755 6.65356445 52.08666992 C6.53460651 41.49435084 6.28237055 31.03265127 4.64453125 20.55078125 C4.52945724 19.81329147 4.41438324 19.0758017 4.29582214 18.31596375 C3.49030663 13.68598161 2.20725204 9.37592652 0.59843445 4.96110535 C0 3 0 3 0 0 Z " fill="#70B4E2" transform="translate(358,193)"/>
<path d="M0 0 C0.33 0 0.66 0 1 0 C1 1.98 1 3.96 1 6 C-4.61 6 -10.22 6 -16 6 C-16 6.66 -16 7.32 -16 8 C-19.56173198 8.98197493 -23.12451465 9.96008343 -26.6875 10.9375 C-27.69490234 11.21529297 -28.70230469 11.49308594 -29.74023438 11.77929688 C-31.20493164 12.18051758 -31.20493164 12.18051758 -32.69921875 12.58984375 C-33.59471436 12.83597412 -34.49020996 13.08210449 -35.4128418 13.33569336 C-37.92981875 13.98197951 -40.44747238 14.51524101 -43 15 C-43 15.66 -43 16.32 -43 17 C-46.97193147 20.12940055 -50.04230204 20.29162929 -55 20 C-52.81280251 17.56629107 -50.88374533 16.32115152 -47.859375 15.09765625 C-47.04380127 14.76644775 -46.22822754 14.43523926 -45.38793945 14.09399414 C-44.08215942 13.58340454 -44.08215942 13.58340454 -42.75 13.0625 C-41.85047607 12.70986084 -40.95095215 12.35722168 -40.02416992 11.99389648 C-26.69787056 6.86876118 -14.25164145 4.34887739 0 4 C0 2.68 0 1.36 0 0 Z " fill="#6BAFDF" transform="translate(260,112)"/>
<path d="M0 0 C10.89 0 21.78 0 33 0 C33 0.66 33 1.32 33 2 C17.655 2.495 17.655 2.495 2 3 C2 14.88 2 26.76 2 39 C1.34 39 0.68 39 0 39 C0 26.13 0 13.26 0 0 Z " fill="#395124" transform="translate(294,264)"/>
<path d="M0 0 C0.66 0 1.32 0 2 0 C2.27539295 5.9614473 1.28164826 11.21781594 -0.125 17 C-0.34438232 17.91612061 -0.56376465 18.83224121 -0.78979492 19.77612305 C-2.80717564 27.85763314 -5.60256963 35.39956299 -9 43 C-9.33 43 -9.66 43 -10 43 C-10.19953041 38.71009608 -9.66617076 35.92040178 -8 32 C-7.835 30.9275 -7.67 29.855 -7.5 28.75 C-7.335 27.8425 -7.17 26.935 -7 26 C-6.34 25.67 -5.68 25.34 -5 25 C-4.53348793 22.87423218 -4.53348793 22.87423218 -4.375 20.4375 C-4.30023438 19.61121094 -4.22546875 18.78492188 -4.1484375 17.93359375 C-4.09945313 17.29550781 -4.05046875 16.65742188 -4 16 C-3.34 16 -2.68 16 -2 16 C-2 12.7 -2 9.4 -2 6 C-1.34 6 -0.68 6 0 6 C0 4.02 0 2.04 0 0 Z " fill="#57A7E1" transform="translate(381,288)"/>
<path d="M0 0 C0.33 0 0.66 0 1 0 C3.01953966 15.07442106 5.97830308 40.60433063 -2 54 C-2.99 54.495 -2.99 54.495 -4 55 C-3.125 48.125 -3.125 48.125 -2 47 C-1.84842284 45.52847423 -1.76200605 44.05015136 -1.70288086 42.57202148 C-1.66291489 41.63112167 -1.62294891 40.69022186 -1.58177185 39.72080994 C-1.52389244 38.18645042 -1.52389244 38.18645042 -1.46484375 36.62109375 C-1.42186661 35.57929459 -1.37888947 34.53749542 -1.33460999 33.46412659 C-1.19777367 30.12208154 -1.06757072 26.77981455 -0.9375 23.4375 C-0.84613846 21.17771673 -0.75434732 18.91795079 -0.66210938 16.65820312 C-0.43641275 11.1056605 -0.21616806 5.5529213 0 0 Z " fill="#61AFD8" transform="translate(400,226)"/>
<path d="M0 0 C10.56 0 21.12 0 32 0 C33.15941038 3.47823115 32.70820884 5.45895578 32 9 C31.67 9 31.34 9 31 9 C31 7.02 31 5.04 31 3 C21.1 3 11.2 3 1 3 C0.67 2.01 0.34 1.02 0 0 Z " fill="#3D4245" transform="translate(252,205)"/>
<path d="M0 0 C1.79041248 3.23831126 2.73750239 6.41415108 3.625 10 C3.88539063 11.03125 4.14578125 12.0625 4.4140625 13.125 C5 16 5 16 5 20 C5.66386719 20.14695313 6.32773437 20.29390625 7.01171875 20.4453125 C13.29727683 22.04193601 16.5883775 23.38733072 20 29 C20.8125 32.375 20.8125 32.375 21 35 C19.515 34.505 19.515 34.505 18 34 C17.30341637 32.34561387 16.63903117 30.67745682 16 29 C13.38692772 25.86586866 10.74215466 25.08712612 6.9375 23.94140625 C4.39302456 22.70507846 3.43986575 21.4252606 2 19 C0.19069484 12.76902394 -0.24349642 6.45265515 0 0 Z " fill="#63B2E4" transform="translate(379,191)"/>
<path d="M0 0 C0.4129834 0.4851709 0.8259668 0.9703418 1.25146484 1.47021484 C3.33196396 3.2904337 4.25619674 3.39843852 6.9765625 3.4765625 C8.10578125 3.52296875 8.10578125 3.52296875 9.2578125 3.5703125 C10.03898437 3.58835938 10.82015625 3.60640625 11.625 3.625 C19.89527027 3.89527027 19.89527027 3.89527027 21 5 C21.01670061 6.71003031 20.96290858 8.42085878 20.87890625 10.12890625 C20.83056641 11.16337891 20.78222656 12.19785156 20.73242188 13.26367188 C20.67634766 14.35228516 20.62027344 15.44089844 20.5625 16.5625 C20.51029297 17.65498047 20.45808594 18.74746094 20.40429688 19.87304688 C20.27415852 22.58229076 20.13917946 25.29120794 20 28 C19.67 28 19.34 28 19 28 C19 21.4 19 14.8 19 8 C16.03 8 13.06 8 10 8 C7.22265625 7.484375 7.22265625 7.484375 5.0625 6.75 C3.96615234 6.40195313 3.96615234 6.40195313 2.84765625 6.046875 C0.5315764 4.73459297 -0.03863016 3.43614139 -1 1 C-0.67 0.67 -0.34 0.34 0 0 Z " fill="#46494B" transform="translate(286,226)"/>
<path d="M0 0 C4 4.75 4 4.75 4 7 C12.91 7 21.82 7 31 7 C31 7.99 31 8.98 31 10 C25.74918443 11.14702282 20.93483462 10.93088566 15.625 10.5625 C14.79355469 10.51029297 13.96210938 10.45808594 13.10546875 10.40429688 C11.06991892 10.27561269 9.03489559 10.13864593 7 10 C7 9.34 7 8.68 7 8 C5.02 8 3.04 8 1 8 C-1.125 3.375 -1.125 3.375 0 0 Z " fill="#393C3E" transform="translate(250,187)"/>
<path d="M0 0 C11.70452886 1.89980226 22.2429506 8.61415704 32 15 C31.67 15.66 31.34 16.32 31 17 C30.01 17 29.02 17 28 17 C28 16.34 28 15.68 28 15 C27.34773438 14.81824219 26.69546875 14.63648438 26.0234375 14.44921875 C21.07269989 13.02533404 16.53453577 11.50592766 12 9 C12 8.01 12 7.02 12 6 C11.319375 5.896875 10.63875 5.79375 9.9375 5.6875 C6.37084011 4.85274981 3.33777806 3.50527246 0 2 C0 1.34 0 0.68 0 0 Z " fill="#2C96DF" transform="translate(309,123)"/>
<path d="M0 0 C7.78145802 -0.81276351 12.95906528 0.40912233 19.78515625 4.19921875 C22.33280529 6.27058772 23.0630534 7.89272512 24 11 C21.13275314 10.42655063 20.1385485 10.1385485 18 8 C17.01 7.67 16.02 7.34 15 7 C15 6.34 15 5.68 15 5 C9.39 5 3.78 5 -2 5 C-2.33 4.01 -2.66 3.02 -3 2 C-2.01 2 -1.02 2 0 2 C0 1.34 0 0.68 0 0 Z " fill="#4A595B" transform="translate(261,53)"/>
<path d="M0 0 C0 0.99 0 1.98 0 3 C-1.98075027 4.36176581 -3.98079663 5.69593116 -6 7 C-6 7.66 -6 8.32 -6 9 C-6.66 9 -7.32 9 -8 9 C-8.33 9.66 -8.66 10.32 -9 11 C-9.66 10.67 -10.32 10.34 -11 10 C-11.99 11.485 -11.99 11.485 -13 13 C-14.32 13 -15.64 13 -17 13 C-17.33 13.99 -17.66 14.98 -18 16 C-20.3125 18.75 -20.3125 18.75 -23 21 C-25.16796875 20.640625 -25.16796875 20.640625 -27 20 C-21.72999418 14.07124346 -16.08261001 9.41058174 -9.5625 4.9375 C-8.85222656 4.44854248 -8.14195312 3.95958496 -7.41015625 3.45581055 C-2.27122082 0 -2.27122082 0 0 0 Z " fill="#188BDE" transform="translate(205,132)"/>
<path d="M0 0 C3.54685108 0.27186203 4.85331491 0.85935898 7.46484375 3.36328125 C8.28082031 4.33652344 9.09679687 5.30976563 9.9375 6.3125 C12.6237507 9.50109235 14.78232333 11.8618048 18.31640625 14.10546875 C19.20199219 14.73066406 20.08757812 15.35585937 21 16 C21 17.32 21 18.64 21 20 C21.66 20 22.32 20 23 20 C23.433125 20.886875 23.86625 21.77375 24.3125 22.6875 C25.89135389 25.93818558 25.89135389 25.93818558 27.6875 28.5625 C29.15616695 31.29002434 29.26143592 32.94991429 29 36 C26.61421945 32.98937217 24.81683023 29.87930423 23 26.5 C17.48247464 16.94639901 9.85419629 9.20055045 1.36328125 2.20703125 C0.91339844 1.80871094 0.46351563 1.41039062 0 1 C0 0.67 0 0.34 0 0 Z " fill="#60B3E6" transform="translate(329,157)"/>
<path d="M0 0 C0.33 0 0.66 0 1 0 C1.125 6.75 1.125 6.75 0 9 C-0.11747478 10.41882881 -0.17685428 11.84271414 -0.20532227 13.26611328 C-0.22526749 14.14687531 -0.24521271 15.02763733 -0.26576233 15.93508911 C-0.28247482 16.88721283 -0.29918732 17.83933655 -0.31640625 18.8203125 C-0.33718735 19.79410858 -0.35796844 20.76790466 -0.37937927 21.77120972 C-0.44488598 24.88906647 -0.50376497 28.00700903 -0.5625 31.125 C-0.60568415 33.23568604 -0.6492984 35.34636333 -0.69335938 37.45703125 C-0.80056847 42.6379295 -0.90233278 47.81891356 -1 53 C-1.33 53 -1.66 53 -2 53 C-3.14218655 44.96784942 -3.22000534 36.95848797 -3.24023438 28.86181641 C-3.24997858 26.50517982 -3.2811005 24.14940317 -3.3125 21.79296875 C-3.36545842 14.02409117 -3.15634958 7.24299167 0 0 Z " fill="#76B8E7" transform="translate(136,221)"/>
<path d="M0 0 C0.99 0 1.98 0 3 0 C3.66 0.99 4.32 1.98 5 3 C8.39355764 4.34613692 11.90811572 4.11405402 15.515625 4.09765625 C17.39121094 4.09282227 17.39121094 4.09282227 19.3046875 4.08789062 C20.60664063 4.07951172 21.90859375 4.07113281 23.25 4.0625 C24.56742188 4.05798828 25.88484375 4.05347656 27.2421875 4.04882812 C30.49483741 4.03704316 33.74739584 4.02059011 37 4 C36.67 5.32 36.34 6.64 36 8 C35.27997803 7.83483887 34.55995605 7.66967773 33.81811523 7.49951172 C31.08009389 7.01419666 28.68339608 6.92910576 25.91015625 7.0078125 C24.96076172 7.02457031 24.01136719 7.04132813 23.03320312 7.05859375 C21.05644835 7.10278156 19.07985342 7.15483613 17.10351562 7.21484375 C11.62348945 7.29657973 7.71007287 7.16280256 3 4 C1.125 1.8125 1.125 1.8125 0 0 Z " fill="#414649" transform="translate(219,285)"/>
<path d="M0 0 C0.33 0 0.66 0 1 0 C1.75 3.1875 1.75 3.1875 2 7 C0.25 9.5625 0.25 9.5625 -2 12 C-6.49772453 19.37626822 -8.03404694 28.49961304 -9 37 C-9.66 37 -10.32 37 -11 37 C-10.65734827 24.04153446 -5.71577296 11.4801908 0 0 Z " fill="#519ED9" transform="translate(162,174)"/>
<path d="M0 0 C0.66 0.33 1.32 0.66 2 1 C2.07403712 6.23271569 2.12854783 11.46512801 2.16479492 16.69824219 C2.17990173 18.47922067 2.20038835 20.26016184 2.22631836 22.04101562 C2.26261943 24.59774978 2.27970688 27.1539931 2.29296875 29.7109375 C2.30845261 30.50994476 2.32393646 31.30895203 2.33988953 32.13217163 C2.34057617 34.37646484 2.34057617 34.37646484 2 38 C1.01 38.66 0.02 39.32 -1 40 C-0.67 26.8 -0.34 13.6 0 0 Z " fill="#46484A" transform="translate(217,236)"/>
<path d="M0 0 C0.33 0.66 0.66 1.32 1 2 C-0.1875 4.6875 -0.1875 4.6875 -2 8 C-2.45439453 8.93005859 -2.45439453 8.93005859 -2.91796875 9.87890625 C-4.50619612 12.98405282 -5.50607396 14.75878031 -8.6875 16.3125 C-9.450625 16.539375 -10.21375 16.76625 -11 17 C-11.33 17.66 -11.66 18.32 -12 19 C-13.33333333 19.33333333 -14.66666667 19.66666667 -16 20 C-16.33 20.66 -16.66 21.32 -17 22 C-18.65 22 -20.3 22 -22 22 C-19.42810901 19.32407746 -16.83137109 17.08755209 -13.8125 14.9375 C-8.27942746 10.72795311 -4.20218656 5.4936387 0 0 Z " fill="#198BD8" transform="translate(352,305)"/>
<path d="M0 0 C1.32 0 2.64 0 4 0 C4 0.66 4 1.32 4 2 C5.32 2 6.64 2 8 2 C8 2.66 8 3.32 8 4 C11.63 4 15.26 4 19 4 C19 4.33 19 4.66 19 5 C26.59 5.33 34.18 5.66 42 6 C42 6.33 42 6.66 42 7 C8.94427995 9.06744753 8.94427995 9.06744753 2 4 C0.625 1.8125 0.625 1.8125 0 0 Z " fill="#5D6468" transform="translate(285,308)"/>
<path d="M0 0 C-1.9490625 0.1546875 -1.9490625 0.1546875 -3.9375 0.3125 C-10.21524702 1.01331767 -15.73788547 2.86894273 -21.375 5.6875 C-24 7 -24 7 -27 7 C-27.2475 7.639375 -27.495 8.27875 -27.75 8.9375 C-29 11 -29 11 -31.125 11.75 C-32.053125 11.87375 -32.053125 11.87375 -33 12 C-30.3189464 6.48018376 -26.1691336 3.47892901 -20.71484375 0.93359375 C-17.46988861 -0.1822973 -14.33069362 -0.74192823 -10.9375 -1.25 C-9.72964844 -1.44078125 -8.52179688 -1.6315625 -7.27734375 -1.828125 C-4.01764976 -1.99907439 -2.66507119 -1.78114484 0 0 Z " fill="#363C3E" transform="translate(232,174)"/>
<path d="M0 0 C-0.37275786 2.70249451 -0.78448849 3.79935135 -2.8125 5.6875 C-6.75300428 8.05180257 -10.1058251 8.09599773 -14.640625 7.87890625 C-16.24550781 7.80639648 -16.24550781 7.80639648 -17.8828125 7.73242188 C-19.54957031 7.64831055 -19.54957031 7.64831055 -21.25 7.5625 C-22.93996094 7.48418945 -22.93996094 7.48418945 -24.6640625 7.40429688 C-27.44299972 7.27477014 -30.22156424 7.13980947 -33 7 C-32.67 6.34 -32.34 5.68 -32 5 C-31.26885986 4.9906543 -30.53771973 4.98130859 -29.78442383 4.97167969 C-26.45977282 4.91787336 -23.13651322 4.83424496 -19.8125 4.75 C-18.08676758 4.72873047 -18.08676758 4.72873047 -16.32617188 4.70703125 C-15.21435547 4.67480469 -14.10253906 4.64257812 -12.95703125 4.609375 C-11.93585205 4.58842773 -10.91467285 4.56748047 -9.86254883 4.54589844 C-5.88496676 3.78735912 -3.79168735 0 0 0 Z " fill="#3E4349" transform="translate(336,307)"/>
<path d="M0 0 C0.99386719 0.00902344 1.98773438 0.01804688 3.01171875 0.02734375 C4.15060547 0.04474609 4.15060547 0.04474609 5.3125 0.0625 C5.6425 0.7225 5.9725 1.3825 6.3125 2.0625 C5.51585937 2.18367187 4.71921875 2.30484375 3.8984375 2.4296875 C-4.12488304 3.46811173 -4.12488304 3.46811173 -11.6875 6.0625 C-12.93464403 8.47202023 -12.93464403 8.47202023 -13.6875 11.0625 C-14.18507812 11.51367188 -14.68265625 11.96484375 -15.1953125 12.4296875 C-17.12428833 14.54045162 -17.17076012 15.93148971 -17.375 18.75 C-17.44074219 19.55824219 -17.50648438 20.36648437 -17.57421875 21.19921875 C-17.61160156 21.81410156 -17.64898437 22.42898437 -17.6875 23.0625 C-18.0175 23.0625 -18.3475 23.0625 -18.6875 23.0625 C-19.30938935 13.35411633 -19.30938935 13.35411633 -17.0625 8.6875 C-11.89421876 2.97518916 -7.94735501 -0.09349829 0 0 Z " fill="#BC9B58" transform="translate(224.6875,184.9375)"/>
<path d="M0 0 C0.33 0 0.66 0 1 0 C1.05078155 7.15328942 1.08576793 14.30653219 1.10986328 21.45996094 C1.11991013 23.8925958 1.13354994 26.32521862 1.15087891 28.7578125 C1.17518467 32.25784277 1.18649644 35.75771312 1.1953125 39.2578125 C1.20563507 40.34240753 1.21595764 41.42700256 1.22659302 42.54446411 C1.22736486 47.75921599 1.12305726 52.12945687 -1 57 C-1.66 57 -2.32 57 -3 57 C-2.67 53.37 -2.34 49.74 -2 46 C-1.34 46 -0.68 46 0 46 C0 30.82 0 15.64 0 0 Z " fill="#3392D6" transform="translate(366,224)"/>
<path d="M0 0 C5.61 0 11.22 0 17 0 C5.38783979 7.74144014 -11.59710997 6.15135008 -25 6 C-25 5.67 -25 5.34 -25 5 C-13.12 4.01 -13.12 4.01 -1 3 C-0.67 2.01 -0.34 1.02 0 0 Z " fill="#2C96DD" transform="translate(289,390)"/>
<path d="M0 0 C0.99 0.33 1.98 0.66 3 1 C2.75765625 1.48726562 2.5153125 1.97453125 2.265625 2.4765625 C-2.30048684 12.13564524 -5.26423097 22.33134912 -6 33 C-8.94918466 28.01966482 -8.05545021 23.51105331 -7 18 C-5.13054465 11.82295347 -3.02035729 5.71760658 0 0 Z " fill="#5EA8E1" transform="translate(177,185)"/>
<path d="M0 0 C0.33 0.66 0.66 1.32 1 2 C1.87785156 1.93039063 1.87785156 1.93039063 2.7734375 1.859375 C14.03735569 1.38581688 25.42041119 4.26602748 36 8 C36 8.33 36 8.66 36 9 C30.45539563 8.5136312 25.13600246 7.64911832 19.6875 6.5 C13.12734969 5.14158504 6.68500086 4.36101494 0 4 C0 2.68 0 1.36 0 0 Z " fill="#68B2DD" transform="translate(273,114)"/>
<path d="M0 0 C0.86367187 -0.01224609 1.72734375 -0.02449219 2.6171875 -0.03710938 C3.4525 -0.03904297 4.2878125 -0.04097656 5.1484375 -0.04296875 C6.2919165 -0.04913208 6.2919165 -0.04913208 7.45849609 -0.05541992 C9.88910069 0.21711237 11.51591986 0.97910424 13.625 2.1875 C13.035979 2.24284912 12.44695801 2.29819824 11.84008789 2.35522461 C9.12248485 2.61103973 6.40499254 2.86801378 3.6875 3.125 C2.76130859 3.21201172 1.83511719 3.29902344 0.88085938 3.38867188 C-4.8780406 3.93425187 -10.6274233 4.5331605 -16.375 5.1875 C-16.375 4.5275 -16.375 3.8675 -16.375 3.1875 C-14.725 3.1875 -13.075 3.1875 -11.375 3.1875 C-11.375 2.5275 -11.375 1.8675 -11.375 1.1875 C-7.86791173 -0.56604414 -3.86288251 0.00285716 0 0 Z " fill="#4EA5E5" transform="translate(251.375,137.8125)"/>
<path d="M0 0 C0 0.66 0 1.32 0 2 C-6.6038735 6.06905337 -15.04577008 11 -23 11 C-23 11.66 -23 12.32 -23 13 C-25.97 12.67 -28.94 12.34 -32 12 C-32 11.67 -32 11.34 -32 11 C-30.38544922 10.56300781 -30.38544922 10.56300781 -28.73828125 10.1171875 C-20.23157319 7.75079198 -12.36737512 5.07490353 -4.44140625 1.13671875 C-2 0 -2 0 0 0 Z " fill="#57A4DE" transform="translate(330,327)"/>
<path d="M0 0 C1.65 0 3.3 0 5 0 C3.59601721 4.10110762 1.62912962 6.98089159 -1.125 10.3125 C-1.84945313 11.19550781 -2.57390625 12.07851563 -3.3203125 12.98828125 C-4.15175781 13.98408203 -4.15175781 13.98408203 -5 15 C-5.94356071 11.5741488 -6.19930768 9.42659338 -5 6 C-3.37667033 4.61423077 -1.71275535 3.27358732 0 2 C0 1.34 0 0.68 0 0 Z " fill="#349CE1" transform="translate(358,345)"/>
<path d="M0 0 C1.98 0 3.96 0 6 0 C6 2.64 6 5.28 6 8 C6.66 8 7.32 8 8 8 C8.04898438 8.556875 8.09796875 9.11375 8.1484375 9.6875 C8.53356466 13.61845312 9.02194902 17.3721464 10.0625 21.1875 C10.91419103 24.65104351 11.17702548 27.45949045 11 31 C9.01540616 28.02310924 8.45176525 26.25030785 7.7109375 22.81640625 C7.49179688 21.80642578 7.27265625 20.79644531 7.046875 19.75585938 C6.82515625 18.70205078 6.6034375 17.64824219 6.375 16.5625 C6.14554688 15.51255859 5.91609375 14.46261719 5.6796875 13.38085938 C4.76918807 9.12915221 4 5.36650316 4 1 C2.68 0.67 1.36 0.34 0 0 Z " fill="#4FA5DC" transform="translate(147,286)"/>
<path d="M0 0 C0.33 0 0.66 0 1 0 C2.31191997 6.95214281 2.11058058 13.88444903 2.0625 20.9375 C2.05798828 22.19369141 2.05347656 23.44988281 2.04882812 24.74414062 C2.03709681 27.82947663 2.020681 30.91471316 2 34 C-0.34097722 32.2006152 -0.95568829 31.32918134 -1.35644531 28.35205078 C-1.34709961 27.31032715 -1.33775391 26.26860352 -1.328125 25.1953125 C-1.32296875 24.05449219 -1.3178125 22.91367187 -1.3125 21.73828125 C-1.291875 20.54589844 -1.27125 19.35351562 -1.25 18.125 C-1.24484375 16.94035156 -1.2396875 15.75570313 -1.234375 14.53515625 C-1.18941106 9.54977937 -1.12033661 4.87537266 0 0 Z " fill="#3D4143" transform="translate(337,264)"/>
<path d="M0 0 C8.15572021 5.09732513 14.5524797 11.05569956 20 19 C18.02 18.67 16.04 18.34 14 18 C13.67 16.02 13.34 14.04 13 12 C12.4225 11.87625 11.845 11.7525 11.25 11.625 C8.97664233 10.99351176 7.0746471 10.11141809 5 9 C5 7.68 5 6.36 5 5 C3.68 4.67 2.36 4.34 1 4 C0.67 2.68 0.34 1.36 0 0 Z " fill="#5DA9E1" transform="translate(341,139)"/>
<path d="M0 0 C6.50003644 -0.35312069 11.22590528 -0.12763464 17 3 C19 5 19 5 19 9 C18.34 9 17.68 9 17 9 C16.38125 8.195625 15.7625 7.39125 15.125 6.5625 C11.68822065 2.86456721 7.21587327 3.25571449 2.44921875 3.04296875 C1.64097656 3.02878906 0.83273437 3.01460938 0 3 C0 2.01 0 1.02 0 0 Z " fill="#4B5456" transform="translate(318,254)"/>
<path d="M0 0 C0.33 0 0.66 0 1 0 C1.89428578 11.22648042 2.3079769 21.81212619 1 33 C-1 31 -1 31 -1.24291992 29.11157227 C-1.23881104 28.35416748 -1.23470215 27.5967627 -1.23046875 26.81640625 C-1.22917969 25.97561523 -1.22789062 25.13482422 -1.2265625 24.26855469 C-1.21367187 23.37555664 -1.20078125 22.48255859 -1.1875 21.5625 C-1.18105469 20.66047852 -1.17460937 19.75845703 -1.16796875 18.82910156 C-1.09535124 12.51818646 -0.80464895 6.26476679 0 0 Z " fill="#494C4E" transform="translate(337,191)"/>
<path d="M0 0 C0.33 0 0.66 0 1 0 C1 11.88 1 23.76 1 36 C0.34 36 -0.32 36 -1 36 C-1.22786458 33.98177083 -1.45572917 31.96354167 -1.68359375 29.9453125 C-1.91292961 27.92595684 -1.91292961 27.92595684 -3 26 C-2.73524994 22.98184927 -2.38322774 20.00450546 -2 17 C-1.73412373 14.76412715 -1.4730281 12.52772192 -1.2121582 10.29125977 C-0.81181412 6.86039997 -0.40564226 3.43023699 0 0 Z " fill="#494D4F" transform="translate(230,242)"/>
<path d="M0 0 C2.31 0.66 4.62 1.32 7 2 C7 2.66 7 3.32 7 4 C7.72445312 4.1134375 8.44890625 4.226875 9.1953125 4.34375 C12.11375101 5.02661583 14.25613165 6.06087746 16.875 7.5 C19.9754285 9.11962683 22.51014246 10.28915597 26 10.625 C26.99 10.74875 27.98 10.8725 29 11 C29.99 12.485 29.99 12.485 31 14 C25.49294027 13.45573922 21.08476664 12.03361453 16.0625 9.75 C15.36318359 9.43788574 14.66386719 9.12577148 13.94335938 8.80419922 C9.01892268 6.5657146 4.42447015 4.13399969 0 1 C0 0.67 0 0.34 0 0 Z " fill="#3B93CE" transform="translate(207,379)"/>
<path d="M0 0 C-0.845625 0.49628906 -1.69125 0.99257812 -2.5625 1.50390625 C-9.2549811 5.49116825 -15.3671215 9.55431686 -21 15 C-21.33 14.01 -21.66 13.02 -22 12 C-20.33333333 10.33333333 -18.66666667 8.66666667 -17 7 C-16.319375 6.236875 -15.63875 5.47375 -14.9375 4.6875 C-13 3 -13 3 -9 3 C-9 2.34 -9 1.68 -9 1 C-3.375 -1.125 -3.375 -1.125 0 0 Z " fill="#55A4DC" transform="translate(217,150)"/>
<path d="M0 0 C0 3.01490557 -0.51952735 4.86864114 -1.5 7.6875 C-1.7784375 8.49574219 -2.056875 9.30398437 -2.34375 10.13671875 C-2.5603125 10.75160156 -2.776875 11.36648437 -3 12 C-4.65 12.33 -6.3 12.66 -8 13 C-8 13.99 -8 14.98 -8 16 C-8.66 16 -9.32 16 -10 16 C-10 16.99 -10 17.98 -10 19 C-10.66 19 -11.32 19 -12 19 C-12 19.66 -12 20.32 -12 21 C-12.66 21 -13.32 21 -14 21 C-12.43452432 16.33025719 -9.87575931 12.74407379 -7 8.8125 C-6.54882812 8.18408203 -6.09765625 7.55566406 -5.6328125 6.90820312 C-3.86296977 4.46026976 -2.13935669 2.13935669 0 0 Z " fill="#3F9ADF" transform="translate(177,153)"/>
<path d="M0 0 C2.78637633 4.1795645 1.79562512 6.14668677 1 11 C0.34 11 -0.32 11 -1 11 C-1.33 13.31 -1.66 15.62 -2 18 C-2.99 18.33 -3.98 18.66 -5 19 C-5 19.66 -5 20.32 -5 21 C-5.66 21 -6.32 21 -7 21 C-7.33 21.99 -7.66 22.98 -8 24 C-8.33 23.34 -8.66 22.68 -9 22 C-7.96066958 19.73074561 -6.87048297 17.56744274 -5.6875 15.375 C-3.04125451 10.31120492 -1.01512749 5.63959715 0 0 Z " fill="#5BAEE3" transform="translate(362,281)"/>
<path d="M0 0 C0.66 0 1.32 0 2 0 C1.80557237 3.49969734 1.23103699 4.77520726 -1.3125 7.25 C-5.98343498 10.09617169 -11.6830474 9.82793034 -17 10 C-16.34 9.67 -15.68 9.34 -15 9 C-15 8.34 -15 7.68 -15 7 C-13.205625 6.87625 -13.205625 6.87625 -11.375 6.75 C-7.09584533 6.22555653 -4.38584128 4.72518932 -1 2 C-0.67 1.34 -0.34 0.68 0 0 Z " fill="#3E4246" transform="translate(335,224)"/>
<path d="M0 0 C0 3.61207397 -1.1151038 4.98416608 -3 8 C-3.33 8.99 -3.66 9.98 -4 11 C-6.31309705 10.88658363 -8.62550185 10.75896193 -10.9375 10.625 C-12.22527344 10.55539063 -13.51304687 10.48578125 -14.83984375 10.4140625 C-16.40412109 10.20910156 -16.40412109 10.20910156 -18 10 C-18.33 9.34 -18.66 8.68 -19 8 C-18.02160156 7.96132812 -18.02160156 7.96132812 -17.0234375 7.921875 C-9.69643276 7.44637617 -5.0183697 5.57596633 0 0 Z " fill="#4F452D" transform="translate(239,213)"/>
<path d="M0 0 C-5.37205707 3.35159313 -10.81895348 6.51530833 -16.4375 9.4375 C-17.42621094 9.95183594 -18.41492188 10.46617187 -19.43359375 10.99609375 C-22 12 -22 12 -25 11 C-19.62794293 7.64840687 -14.18104652 4.48469167 -8.5625 1.5625 C-7.57378906 1.04816406 -6.58507812 0.53382813 -5.56640625 0.00390625 C-3 -1 -3 -1 0 0 Z " fill="#3394D2" transform="translate(331,378)"/>
<path d="M0 0 C1.07765625 0.00902344 2.1553125 0.01804688 3.265625 0.02734375 C4.08546875 0.03894531 4.9053125 0.05054688 5.75 0.0625 C5.42 0.7225 5.09 1.3825 4.75 2.0625 C2.38671875 2.625 2.38671875 2.625 -0.5625 3.0625 C-4.23325794 3.61139838 -6.96293494 4.37940761 -10.25 6.0625 C-12.5 5.6875 -12.5 5.6875 -14.25 5.0625 C-9.74742762 0.07750915 -6.56990089 -0.07141197 0 0 Z " fill="#595D62" transform="translate(299.25,253.9375)"/>
<path d="M0 0 C2.31 0.33 4.62 0.66 7 1 C7 1.66 7 2.32 7 3 C14.92 2.505 14.92 2.505 23 2 C17.28682206 6.28488345 11.95274534 5.91937128 5 5 C2.41655163 3.56641015 1.63607874 2.51704422 0 0 Z " fill="#D6B062" transform="translate(211,216)"/>
<path d="M0 0 C1.65 0 3.3 0 5 0 C5.103125 0.70125 5.20625 1.4025 5.3125 2.125 C6.09359003 5.39137647 7.42058743 8.0471852 9 11 C6.03216871 9.54331217 3.13584687 7.98767914 0.25 6.375 C-0.54921875 5.92898437 -1.3484375 5.48296875 -2.171875 5.0234375 C-2.77515625 4.68570313 -3.3784375 4.34796875 -4 4 C-2.68 3.34 -1.36 2.68 0 2 C0 1.34 0 0.68 0 0 Z " fill="#399CE2" transform="translate(320,146)"/>
<path d="M0 0 C0 1.65 0 3.3 0 5 C-3.96 6.98 -7.92 8.96 -12 11 C-12.33 9.68 -12.66 8.36 -13 7 C-10.03 6.01 -7.06 5.02 -4 4 C-4.33 3.01 -4.66 2.02 -5 1 C-3 0 -3 0 0 0 Z " fill="#1B91E3" transform="translate(396,277)"/>
<path d="M0 0 C0.33 0 0.66 0 1 0 C3.32490975 19.51263538 3.32490975 19.51263538 -1 26 C-1.66 26.33 -2.32 26.66 -3 27 C-2.125 20.125 -2.125 20.125 -1 19 C-0.84379445 17.58672053 -0.74943827 16.1664541 -0.68359375 14.74609375 C-0.64169922 13.89208984 -0.59980469 13.03808594 -0.55664062 12.15820312 C-0.51732422 11.26037109 -0.47800781 10.36253906 -0.4375 9.4375 C-0.39431641 8.53580078 -0.35113281 7.63410156 -0.30664062 6.70507812 C-0.20021858 4.47021515 -0.09820012 2.23523692 0 0 Z " fill="#55A8E1" transform="translate(399,254)"/>
<path d="M0 0 C2.62689244 2.62689244 3.99893642 5.70821274 5.625 9 C5.94984375 9.64195312 6.2746875 10.28390625 6.609375 10.9453125 C9 15.74665179 9 15.74665179 9 18 C5.66137955 17.09767015 4.25851377 16.36930539 2.25 13.5 C0.64891576 9.01696414 0.27104944 4.72934533 0 0 Z " fill="#55A3E1" transform="translate(173,286)"/>
<path d="M0 0 C1.32 0 2.64 0 4 0 C2.65983496 4.02049513 0.71229298 4.78225303 -2.8125 7.0625 C-3.87082031 7.75472656 -4.92914063 8.44695312 -6.01953125 9.16015625 C-8.31615582 10.5778629 -10.55924963 11.85940721 -13 13 C-12.67 11.68 -12.34 10.36 -12 9 C-11.01 9 -10.02 9 -9 9 C-9 8.34 -9 7.68 -9 7 C-8.34 7 -7.68 7 -7 7 C-7 6.34 -7 5.68 -7 5 C-5.03277992 3.61876037 -3.03131672 2.28511874 -1 1 C-0.67 0.67 -0.34 0.34 0 0 Z " fill="#565C5F" transform="translate(276,287)"/>
<path d="M0 0 C0.33 0 0.66 0 1 0 C0.73140413 6.44630099 -1.64571606 10.28827485 -6 15 C-6.99 15.66 -7.98 16.32 -9 17 C-8.67 15.35 -8.34 13.7 -8 12 C-7.34 12 -6.68 12 -6 12 C-5.71125 11.0925 -5.4225 10.185 -5.125 9.25 C-4.23468224 6.67797092 -3.28505587 4.38653234 -2 2 C-1.34 2 -0.68 2 0 2 C0 1.34 0 0.68 0 0 Z " fill="#5C5C61" transform="translate(252,211)"/>
<path d="M0 0 C0.66 0 1.32 0 2 0 C1.48974064 4.38823051 0.8191066 7.54432094 -2 11 C-4.57477315 12.56216474 -7.23058453 13.82250506 -10 15 C-10 14.01 -10 13.02 -10 12 C-9.21625 11.773125 -8.4325 11.54625 -7.625 11.3125 C-4.83062595 10.24817375 -4.83062595 10.24817375 -3.875 7.6875 C-3.441875 6.3571875 -3.441875 6.3571875 -3 5 C-1.5 2.1875 -1.5 2.1875 0 0 Z " fill="#54595B" transform="translate(286,80)"/>
<path d="M0 0 C0.103125 0.639375 0.20625 1.27875 0.3125 1.9375 C0.539375 2.618125 0.76625 3.29875 1 4 C1.99 4.33 2.98 4.66 4 5 C4 14.24 4 23.48 4 33 C3.67 33 3.34 33 3 33 C2.98018066 32.28344238 2.96036133 31.56688477 2.93994141 30.82861328 C2.84490481 27.5936937 2.73513981 24.35943906 2.625 21.125 C2.57859375 19.43310547 2.57859375 19.43310547 2.53125 17.70703125 C2.49257813 16.63066406 2.45390625 15.55429688 2.4140625 14.4453125 C2.3826416 13.45031738 2.3512207 12.45532227 2.31884766 11.43017578 C2.22752917 8.82145483 2.22752917 8.82145483 0 7 C-0.125 3.375 -0.125 3.375 0 0 Z " fill="#1889DA" transform="translate(396,221)"/>
<path d="M0 0 C0.99 0 1.98 0 3 0 C3.66 0.99 4.32 1.98 5 3 C7.70455572 4.14423511 10.1846154 3.97532992 13.0625 3.875 C17 4 17 4 18.74609375 5.5078125 C19.15988281 6.00023437 19.57367188 6.49265625 20 7 C8.10228354 7.57159848 8.10228354 7.57159848 3 4 C1.125 1.8125 1.125 1.8125 0 0 Z " fill="#4B4E50" transform="translate(219,285)"/>
<path d="M0 0 C2 2 2 2 2.01171875 4.1796875 C1.90472656 5.06914062 1.79773438 5.95859375 1.6875 6.875 C1.57921875 7.84824219 1.4709375 8.82148438 1.359375 9.82421875 C1.24078125 10.87222656 1.1221875 11.92023438 1 13 C0.80509963 15.22853183 0.6173649 17.45770429 0.4375 19.6875 C0.35371094 20.70199219 0.26992187 21.71648437 0.18359375 22.76171875 C0.12300781 23.50035156 0.06242188 24.23898437 0 25 C-0.33 25 -0.66 25 -1 25 C-1.86252888 16.25815325 -2.4348809 8.55226763 0 0 Z " fill="#34383B" transform="translate(229,234)"/>
<path d="M0 0 C-3.27171708 1.75439901 -6.60422042 2.95717385 -10.125 4.125 C-11.17945313 4.47820312 -12.23390625 4.83140625 -13.3203125 5.1953125 C-16 6 -16 6 -18 6 C-17.67 4.68 -17.34 3.36 -17 2 C-11.21642935 -0.01167675 -6.09781001 -0.22084624 0 0 Z " fill="#5FAAE9" transform="translate(235,143)"/>
<path d="M0 0 C2.48587357 0.33144981 3.67459316 0.61261091 5.3125 2.5625 C6.3486671 6.23618337 5.62521647 9.24870119 5 13 C3 12 3 12 2.1484375 10.0390625 C1.89320313 9.24242187 1.63796875 8.44578125 1.375 7.625 C1.11460937 6.83351562 0.85421875 6.04203125 0.5859375 5.2265625 C0 3 0 3 0 0 Z " fill="#3A9BDF" transform="translate(358,193)"/>
<path d="M0 0 C2.4175348 0.95618914 4.83403266 1.91486511 7.25 2.875 C7.93191406 3.14441406 8.61382812 3.41382813 9.31640625 3.69140625 C12.61520973 5.0045222 15.86212936 6.33401714 19 8 C13.06997733 8.37851209 8.52760359 7.10575375 3 5 C3 4.34 3 3.68 3 3 C2.01 2.67 1.02 2.34 0 2 C0 1.34 0 0.68 0 0 Z " fill="#48A3E0" transform="translate(209,328)"/>
<path d="M0 0 C3 2 3 2 4 5 C4.02172852 6.90112305 4.02172852 6.90112305 3.87890625 9.01171875 C3.83056641 9.76904297 3.78222656 10.52636719 3.73242188 11.30664062 C3.67634766 12.09232422 3.62027344 12.87800781 3.5625 13.6875 C3.51029297 14.48478516 3.45808594 15.28207031 3.40429688 16.10351562 C3.27480978 18.06936522 3.13809959 20.03473665 3 22 C2.67 22 2.34 22 2 22 C1.93941406 21.16597656 1.87882812 20.33195312 1.81640625 19.47265625 C1.33171913 12.96293534 0.76908647 6.48230025 0 0 Z " fill="#31383C" transform="translate(334,179)"/>
<path d="M0 0 C6.6 0 13.2 0 20 0 C20 0.99 20 1.98 20 3 C14.375 4.125 14.375 4.125 11 3 C11 2.34 11 1.68 11 1 C7.37 1 3.74 1 0 1 C0 0.67 0 0.34 0 0 Z " fill="#767C7D" transform="translate(261,194)"/>
<path d="M0 0 C3.00056084 -0.08166849 5.9988539 -0.14081551 9 -0.1875 C9.83917969 -0.21263672 10.67835938 -0.23777344 11.54296875 -0.26367188 C17.40402129 -0.33182365 21.63166106 0.63271165 27 3 C23.4432448 4.00567383 21.08714886 3.83451895 17.4375 3.125 C11.63633835 2.06894597 5.87707373 1.43962363 0 1 C0 0.67 0 0.34 0 0 Z " fill="#69B3E6" transform="translate(272,139)"/>
<path d="M0 0 C0.33 0.66 0.66 1.32 1 2 C-5.63793103 10.15517241 -5.63793103 10.15517241 -9 13 C-11.15234375 12.62890625 -11.15234375 12.62890625 -13 12 C-11.58653438 10.55935235 -10.16908789 9.12260985 -8.75 7.6875 C-7.96109375 6.88699219 -7.1721875 6.08648437 -6.359375 5.26171875 C-4.32605933 3.31256349 -2.29398922 1.62578594 0 0 Z " fill="#51A5E1" transform="translate(191,140)"/>
<path d="M0 0 C0 4.07746885 -1.52068051 5.83198065 -4 9 C-6.1875 9.75 -6.1875 9.75 -8 10 C-8.33 10.66 -8.66 11.32 -9 12 C-10.65 12 -12.3 12 -14 12 C-11.26795497 9.16792586 -8.44131963 6.69660884 -5.3125 4.3125 C-2.55684113 2.2712108 -2.55684113 2.2712108 0 0 Z " fill="#61AFE1" transform="translate(344,315)"/>
<path d="M0 0 C3.85800559 6.61372387 4.31037657 13.55096231 4 21 C0.20936564 17.20936564 0.13454217 10.6950478 -0.125 5.49609375 C-0.125 3.66358874 -0.06910195 1.83120166 0 0 Z " fill="#3A91D3" transform="translate(379,191)"/>
<path d="M0 0 C3 2 3 2 3.6875 5.125 C3.790625 6.07375 3.89375 7.0225 4 8 C-0.10958767 6.54955729 -3.43258745 4.48889248 -7 2 C-4.3333581 0.66667905 -2.83319697 1.32897967 0 2 C0 1.34 0 0.68 0 0 Z " fill="#369ADD" transform="translate(203,371)"/>
<path d="M0 0 C0.99386719 0.00902344 1.98773438 0.01804688 3.01171875 0.02734375 C4.15060547 0.04474609 4.15060547 0.04474609 5.3125 0.0625 C5.6425 0.7225 5.9725 1.3825 6.3125 2.0625 C1.0325 2.7225 -4.2475 3.3825 -9.6875 4.0625 C-9.3575 3.0725 -9.0275 2.0825 -8.6875 1.0625 C-5.53819107 0.01273036 -3.29935544 -0.03881595 0 0 Z " fill="#C8A65B" transform="translate(224.6875,184.9375)"/>
<path d="M0 0 C2.31 0 4.62 0 7 0 C6.06409496 1.1055189 5.12620142 2.20935453 4.1875 3.3125 C3.40439453 4.23482422 3.40439453 4.23482422 2.60546875 5.17578125 C-0.3373102 8.51952278 -0.3373102 8.51952278 -2 10 C-2.66 10 -3.32 10 -4 10 C-4 9.01 -4 8.02 -4 7 C-3.34 7 -2.68 7 -2 7 C-2 6.34 -2 5.68 -2 5 C-1.01 5 -0.02 5 1 5 C0.67 3.35 0.34 1.7 0 0 Z " fill="#62B4E3" transform="translate(345,360)"/>
<path d="M0 0 C4.39453125 0.73242188 4.39453125 0.73242188 8.7890625 1.46484375 C10.37847656 1.72974609 10.37847656 1.72974609 12 2 C14 2.33333333 16 2.66666667 18 3 C18 3.33 18 3.66 18 4 C15.5622037 4.05397335 13.12560315 4.09365616 10.6875 4.125 C9.65206055 4.15013672 9.65206055 4.15013672 8.59570312 4.17578125 C4.82864604 4.21217794 3.21568296 4.14378864 0 2 C0 1.34 0 0.68 0 0 Z " fill="#4EA8E0" transform="translate(228,336)"/>
<path d="M0 0 C2.18994248 3.28491373 2.35277339 4.83095639 2.625 8.6875 C2.69976562 9.68136719 2.77453125 10.67523438 2.8515625 11.69921875 C2.90054688 12.45847656 2.94953125 13.21773438 3 14 C2.34 13.67 1.68 13.34 1 13 C0.375 10.9375 0.375 10.9375 0 9 C-0.99 9.99 -1.98 10.98 -3 12 C-3.125 9.625 -3.125 9.625 -3 7 C-2.34 6.34 -1.68 5.68 -1 5 C-0.35232207 2.42938689 -0.35232207 2.42938689 0 0 Z " fill="#2C94E4" transform="translate(171,279)"/>
<path d="M0 0 C0.350625 0.45375 0.70125 0.9075 1.0625 1.375 C3.77096206 3.64661334 6.60795328 4.16798854 10 5 C10.33 6.32 10.66 7.64 11 9 C9.39214223 8.40572612 7.78882291 7.79916412 6.1875 7.1875 C5.29417969 6.85105469 4.40085938 6.51460937 3.48046875 6.16796875 C1.08075928 5.03802681 -0.28423353 3.98937707 -2 2 C-1.34 2 -0.68 2 0 2 C0 1.34 0 0.68 0 0 Z " fill="#4B4F51" transform="translate(206,225)"/>
<path d="M0 0 C0.66 0 1.32 0 2 0 C1.93993922 1.45947705 1.8511311 2.91779272 1.75 4.375 C1.70359375 5.18710938 1.6571875 5.99921875 1.609375 6.8359375 C1 9 1 9 -1.046875 10.2890625 C-2.01367188 10.64097656 -2.01367188 10.64097656 -3 11 C-3 8.69 -3 6.38 -3 4 C-2.34 4 -1.68 4 -1 4 C-0.67 2.68 -0.34 1.36 0 0 Z " fill="#292E30" transform="translate(285,210)"/>
<path d="M0 0 C2.35082212 2.89642841 3.83519406 5.65356331 5.1875 9.125 C5.53167969 9.99382812 5.87585938 10.86265625 6.23046875 11.7578125 C7 14 7 14 7 16 C6.01 15.67 5.02 15.34 4 15 C2.83203125 12.63671875 2.83203125 12.63671875 1.8125 9.6875 C1.46832031 8.72199219 1.12414062 7.75648438 0.76953125 6.76171875 C0 4 0 4 0 0 Z " fill="#4FA5E0" transform="translate(372,175)"/>
<path d="M0 0 C2.475 0.99 2.475 0.99 5 2 C5.12036664 7.77759884 4.8320582 13.27959989 4 19 C3.67 19 3.34 19 3 19 C3 13.72 3 8.44 3 3 C2.01 3 1.02 3 0 3 C0 2.01 0 1.02 0 0 Z " fill="#565E60" transform="translate(257,92)"/>
<path d="M0 0 C-0.99 0.66 -1.98 1.32 -3 2 C-3.33 1.67 -3.66 1.34 -4 1 C-5.84891946 0.76636119 -7.70488031 0.58696365 -9.5625 0.4375 C-10.57441406 0.35371094 -11.58632813 0.26992187 -12.62890625 0.18359375 C-13.80259766 0.09271484 -13.80259766 0.09271484 -15 0 C-15 -0.66 -15 -1.32 -15 -2 C-8.77166905 -3.2019586 -5.62870885 -2.93161919 0 0 Z " fill="#363A40" transform="translate(334,178)"/>
<path d="M0 0 C4.28094249 0.30082299 6.18748029 1.81716516 8.99414062 4.99804688 C9.42919922 5.51431641 9.86425781 6.03058594 10.3125 6.5625 C10.76689453 7.08263672 11.22128906 7.60277344 11.68945312 8.13867188 C12.80339243 9.41677066 13.90314888 10.70720655 15 12 C14.67 12.66 14.34 13.32 14 14 C9.33333333 9.33333333 4.66666667 4.66666667 0 0 Z " fill="#8BC1E9" transform="translate(329,157)"/>
<path d="M0 0 C1.65 0 3.3 0 5 0 C5 0.66 5 1.32 5 2 C10.94 2 16.88 2 23 2 C21 4 21 4 18.93701172 4.13525391 C18.10959473 4.08288574 17.28217773 4.03051758 16.4296875 3.9765625 C15.53378906 3.925 14.63789063 3.8734375 13.71484375 3.8203125 C12.77769531 3.75585938 11.84054687 3.69140625 10.875 3.625 C9.93011719 3.56828125 8.98523438 3.5115625 8.01171875 3.453125 C5.67373519 3.31142903 3.33679056 3.16000217 1 3 C0.67 2.01 0.34 1.02 0 0 Z " fill="#2C3134" transform="translate(252,195)"/>
<path d="M0 0 C2.31 0 4.62 0 7 0 C4.57804552 2.87255066 2.40257297 3.70838919 -1.1875 4.6875 C-2.08855469 4.93886719 -2.98960937 5.19023437 -3.91796875 5.44921875 C-4.60503906 5.63097656 -5.29210937 5.81273437 -6 6 C-5.34 4.68 -4.68 3.36 -4 2 C-2.68 2 -1.36 2 0 2 C0 1.34 0 0.68 0 0 Z " fill="#56595C" transform="translate(236,228)"/>
<path d="M0 0 C-0.33 0.99 -0.66 1.98 -1 3 C-2.5778125 3.0928125 -2.5778125 3.0928125 -4.1875 3.1875 C-8.6291735 4.13408616 -10.11593757 5.59156258 -13 9 C-13 8.01 -13 7.02 -13 6 C-4.4 -2.2 -4.4 -2.2 0 0 Z " fill="#67B8E5" transform="translate(151,212)"/>
<path d="M0 0 C0.66 0.33 1.32 0.66 2 1 C0.85865673 3.00256574 -0.28818633 5.00199797 -1.4375 7 C-2.39462891 8.670625 -2.39462891 8.670625 -3.37109375 10.375 C-3.90863281 11.24125 -4.44617188 12.1075 -5 13 C-5.33 13 -5.66 13 -6 13 C-6.25 7.375 -6.25 7.375 -4 4 C-3.01 4 -2.02 4 -1 4 C-0.67 2.68 -0.34 1.36 0 0 Z " fill="#52A7E2" transform="translate(369,332)"/>
<path d="M0 0 C0.33 0 0.66 0 1 0 C1 5.94 1 11.88 1 18 C-2.63 18 -6.26 18 -10 18 C-10 17.67 -10 17.34 -10 17 C-7.94921875 16.77213542 -5.8984375 16.54427083 -3.84765625 16.31640625 C-1.98859771 16.18113386 -1.98859771 16.18113386 -1 15 C-0.76346477 12.47403741 -0.57826308 9.96892793 -0.4375 7.4375 C-0.39431641 6.72658203 -0.35113281 6.01566406 -0.30664062 5.28320312 C-0.20028223 3.52238088 -0.09961154 1.7612168 0 0 Z " fill="#32373B" transform="translate(306,239)"/>
<path d="M0 0 C0.33 0 0.66 0 1 0 C1.33 5.94 1.66 11.88 2 18 C1.01 17.67 0.02 17.34 -1 17 C-1.18451025 5.47835991 -1.18451025 5.47835991 0 0 Z " fill="#525B5E" transform="translate(273,96)"/>
<path d="M0 0 C2.97 0.495 2.97 0.495 6 1 C6.33 1.99 6.66 2.98 7 4 C7.99 4.66 8.98 5.32 10 6 C10 6.99 10 7.98 10 9 C6.78956118 7.61811547 4.95063635 6.07578097 2.75 3.375 C2.22921875 2.74335938 1.7084375 2.11171875 1.171875 1.4609375 C0.78515625 0.97882813 0.3984375 0.49671875 0 0 Z " fill="#66B3E1" transform="translate(185,362)"/>
<path d="M0 0 C3.66172475 0.62678171 6.8818995 1.64451846 10.3125 3.0625 C11.19550781 3.42472656 12.07851563 3.78695312 12.98828125 4.16015625 C13.65214844 4.43730469 14.31601562 4.71445313 15 5 C15 5.33 15 5.66 15 6 C9.17728663 6.59720137 5.0790596 4.528243 0 2 C0 1.34 0 0.68 0 0 Z " fill="#57ABE3" transform="translate(309,123)"/>
<path d="M0 0 C0.33 0.66 0.66 1.32 1 2 C1.66 2 2.32 2 3 2 C4.76462683 5.08809695 5 6.23312136 5 10 C5.66 10 6.32 10 7 10 C7 11.65 7 13.3 7 15 C3.49221789 10.79066147 0 5.5744558 0 0 Z " fill="#64B0E7" transform="translate(161,325)"/>
<path d="M0 0 C3.94120709 0.56302958 6.7508723 1.6791945 10 4 C10 4.66 10 5.32 10 6 C7.69 5.67 5.38 5.34 3 5 C3 4.34 3 3.68 3 3 C2.01 2.67 1.02 2.34 0 2 C0 1.34 0 0.68 0 0 Z " fill="#3F4447" transform="translate(263,274)"/>
<path d="M0 0 C1.73830497 3.00939753 2.251248 5.15942665 2.1875 8.625 C2.18105469 9.40101563 2.17460937 10.17703125 2.16796875 10.9765625 C2 13 2 13 1 15 C0.01 15 -0.98 15 -2 15 C-1.67 14.01 -1.34 13.02 -1 12 C-0.77674186 9.94106379 -0.59294241 7.87766347 -0.4375 5.8125 C-0.35371094 4.72582031 -0.26992187 3.63914063 -0.18359375 2.51953125 C-0.12300781 1.68808594 -0.06242188 0.85664063 0 0 Z " fill="#4B4129" transform="translate(242,198)"/>
<path d="M0 0 C0.33 0 0.66 0 1 0 C1.8125 3.1875 1.8125 3.1875 2 7 C-0.4375 9.9375 -0.4375 9.9375 -3 12 C-3.34833144 7.12335991 -2.41685712 4.22949995 0 0 Z " fill="#3397DE" transform="translate(162,174)"/>
<path d="M0 0 C1.27450447 0.59638333 2.54446877 1.20247416 3.8125 1.8125 C4.52019531 2.14894531 5.22789062 2.48539063 5.95703125 2.83203125 C8.01129035 4.00645471 9.41616278 5.25628016 11 7 C9.68 7.33 8.36 7.66 7 8 C7 7.34 7 6.68 7 6 C6.21625 5.938125 5.4325 5.87625 4.625 5.8125 C3.75875 5.544375 2.8925 5.27625 2 5 C0.6875 2.4375 0.6875 2.4375 0 0 Z " fill="#55A5E3" transform="translate(330,132)"/>
<path d="M0 0 C0.845625 0.309375 1.69125 0.61875 2.5625 0.9375 C6.0055566 2.11632924 6.0055566 2.11632924 9.75 2.4375 C11.35875 2.7159375 11.35875 2.7159375 13 3 C13.99 4.485 13.99 4.485 15 6 C9.54520815 5.43179252 5.08940744 4.05362055 0 2 C0 1.34 0 0.68 0 0 Z " fill="#59A7E0" transform="translate(223,387)"/>
<path d="M0 0 C0.99 0 1.98 0 3 0 C4.125 5.75 4.125 5.75 3 8 C2.34 8 1.68 8 1 8 C0.67 8.99 0.34 9.98 0 11 C0 7.37 0 3.74 0 0 Z " fill="#424446" transform="translate(282,281)"/>
<path d="M0 0 C4.29 0.33 8.58 0.66 13 1 C13 1.66 13 2.32 13 3 C8.71 3 4.42 3 0 3 C0 2.01 0 1.02 0 0 Z " fill="#3A3E41" transform="translate(304,175)"/>
<path d="M0 0 C2.79297711 0.44099639 5.31340243 1.10446748 8 2 C8 2.66 8 3.32 8 4 C4.99727245 4.96516243 2.95784231 5.22393475 0 4 C-0.33 3.01 -0.66 2.02 -1 1 C-0.67 0.67 -0.34 0.34 0 0 Z " fill="#2C98E4" transform="translate(299,140)"/>
<path d="M0 0 C2.44710376 1.86977097 2.96931493 2.82502483 3.51171875 5.91796875 C3.56972656 6.99691406 3.62773437 8.07585937 3.6875 9.1875 C3.75324219 10.27417969 3.81898438 11.36085938 3.88671875 12.48046875 C3.92410156 13.31191406 3.96148437 14.14335937 4 15 C2.25674553 12.3851183 1.58412043 10.9946567 0.875 8.0625 C0.70742187 7.39347656 0.53984375 6.72445313 0.3671875 6.03515625 C0 4 0 4 0 0 Z " fill="#5EADE3" transform="translate(154,302)"/>
<path d="M0 0 C1.76462683 3.08809695 2 4.23312136 2 8 C3.32 8.33 4.64 8.66 6 9 C6 10.32 6 11.64 6 13 C3.67241689 12.06896676 2.25642868 11.34617872 0.75 9.3125 C-0.27095909 6.16454282 -0.12632947 3.28456632 0 0 Z " fill="#E1B863" transform="translate(207,203)"/>
<path d="M0 0 C1.32 0.33 2.64 0.66 4 1 C4 2.32 4 3.64 4 5 C3.01 5.33 2.02 5.66 1 6 C0.67 7.32 0.34 8.64 0 10 C0 6.7 0 3.4 0 0 Z " fill="#34353C" transform="translate(194,203)"/>
<path d="M0 0 C0.66 0.33 1.32 0.66 2 1 C0.52417192 2.66962369 -0.95574891 4.3356306 -2.4375 6 C-3.26121094 6.928125 -4.08492187 7.85625 -4.93359375 8.8125 C-5.61550781 9.534375 -6.29742187 10.25625 -7 11 C-7.33 11 -7.66 11 -8 11 C-8 9.35 -8 7.7 -8 6 C-7.01 6 -6.02 6 -5 6 C-5 5.34 -5 4.68 -5 4 C-3.37373596 2.61767557 -1.7074998 1.28062485 0 0 Z " fill="#76BFE9" transform="translate(193,165)"/>
<path d="M0 0 C-3.0684847 2.97550031 -4.46236331 3.96474513 -8.8125 4.25 C-9.864375 4.1675 -10.91625 4.085 -12 4 C-8.35616205 0.00912986 -5.26350451 -0.11696677 0 0 Z " fill="#469DDE" transform="translate(217,128)"/>
<path d="M0 0 C0.33 0 0.66 0 1 0 C1.20496094 0.91523438 1.40992188 1.83046875 1.62109375 2.7734375 C1.89050781 3.96195313 2.15992188 5.15046875 2.4375 6.375 C2.83775391 8.15003906 2.83775391 8.15003906 3.24609375 9.9609375 C3.85634695 12.89494581 3.85634695 12.89494581 5 15 C1.125 13.125 1.125 13.125 0 12 C-0.07244053 9.98035801 -0.08377188 7.95832876 -0.0625 5.9375 C-0.05347656 4.83277344 -0.04445313 3.72804687 -0.03515625 2.58984375 C-0.02355469 1.73519531 -0.01195312 0.88054687 0 0 Z " fill="#0C86DE" transform="translate(379,199)"/>
<path d="M0 0 C3.87132028 0.57352893 6.08172796 2.48704352 9 5 C8.67 5.66 8.34 6.32 8 7 C5.525 6.01 5.525 6.01 3 5 C3 4.34 3 3.68 3 3 C2.01 3 1.02 3 0 3 C0 2.01 0 1.02 0 0 Z " fill="#3C4044" transform="translate(236,175)"/>
<path d="M0 0 C3.08089673 2.77280706 4.68775452 5.06326356 6 9 C4.02 8.34 2.04 7.68 0 7 C0 4.66666667 0 2.33333333 0 0 Z " fill="#409CDF" transform="translate(361,158)"/>
<path d="M0 0 C0 0.99 0 1.98 0 3 C-1.45381897 3.69699552 -2.91322953 4.38233866 -4.375 5.0625 C-5.18710938 5.44535156 -5.99921875 5.82820312 -6.8359375 6.22265625 C-7.55007812 6.47917969 -8.26421875 6.73570312 -9 7 C-9.66 6.67 -10.32 6.34 -11 6 C-9.54550599 4.9944239 -8.08627557 3.99569565 -6.625 3 C-5.40683594 2.1646875 -5.40683594 2.1646875 -4.1640625 1.3125 C-2 0 -2 0 0 0 Z " fill="#5BA7E3" transform="translate(205,132)"/>
<path d="M0 0 C0.33 0 0.66 0 1 0 C1.061875 0.78375 1.12375 1.5675 1.1875 2.375 C1.455625 3.24125 1.72375 4.1075 2 5 C4.47636012 6.37466625 4.47636012 6.37466625 7 7 C4 9 4 9 1.8125 8.625 C1.214375 8.41875 0.61625 8.2125 0 8 C-0.79953138 4.71303767 -1.09658936 3.28976808 0 0 Z " fill="#6D6E70" transform="translate(254,293)"/>
<path d="M0 0 C0.33 0 0.66 0 1 0 C1.36590746 1.72672034 1.71722195 3.45653655 2.0625 5.1875 C2.25972656 6.15042969 2.45695312 7.11335938 2.66015625 8.10546875 C3.00423947 11.03610862 2.74164697 13.16307068 2 16 C-0.42130331 12.36804504 -0.21022785 10.61650652 -0.125 6.3125 C-0.09792969 4.54326172 -0.09792969 4.54326172 -0.0703125 2.73828125 C-0.04710937 1.83464844 -0.02390625 0.93101562 0 0 Z " fill="#515556" transform="translate(283,292)"/>
<path d="M0 0 C0.33 0 0.66 0 1 0 C1.33 5.61 1.66 11.22 2 17 C-1 14 -1 14 -1.07421875 10.64453125 C-0.94660156 9.37996094 -0.81898438 8.11539062 -0.6875 6.8125 C-0.56761719 5.54019531 -0.44773437 4.26789063 -0.32421875 2.95703125 C-0.21722656 1.98121094 -0.11023438 1.00539063 0 0 Z " fill="#4C4E51" transform="translate(337,281)"/>
<path d="M0 0 C-3.1254959 2.64465038 -6.08788267 3.84414715 -10 5 C-10 3.68 -10 2.36 -10 1 C-6.59437148 0.22157062 -3.49234244 -0.09978121 0 0 Z " fill="#349AD9" transform="translate(393,283)"/>
<path d="M0 0 C0 0.66 0 1.32 0 2 C-0.99 2 -1.98 2 -3 2 C-3.2475 2.639375 -3.495 3.27875 -3.75 3.9375 C-5 6 -5 6 -7.125 6.75 C-8.053125 6.87375 -8.053125 6.87375 -9 7 C-5.13157895 0 -5.13157895 0 0 0 Z " fill="#373C3E" transform="translate(208,179)"/>
<path d="M0 0 C0.66 0 1.32 0 2 0 C2 0.66 2 1.32 2 2 C3.32 2.33 4.64 2.66 6 3 C6.33 4.98 6.66 6.96 7 9 C4.03595495 6.19195732 1.55500981 3.81684226 0 0 Z " fill="#62B3E5" transform="translate(174,349)"/>
<path d="M0 0 C0.33 0 0.66 0 1 0 C1.33 4.95 1.66 9.9 2 15 C1.01 15.66 0.02 16.32 -1 17 C-0.67 11.39 -0.34 5.78 0 0 Z " fill="#A5A6A6" transform="translate(217,259)"/>
<path d="M0 0 C3.375 0.25 3.375 0.25 7 1 C8.4375 3.0625 8.4375 3.0625 9 5 C4.68607774 4.5206753 2.83430453 3.2542015 0 0 Z " fill="#B09550" transform="translate(211,216)"/>
<path d="M0 0 C0.99 0.66 1.98 1.32 3 2 C3 3.32 3 4.64 3 6 C0.36 6 -2.28 6 -5 6 C-3.68 5.67 -2.36 5.34 -1 5 C-0.67 3.35 -0.34 1.7 0 0 Z " fill="#313638" transform="translate(282,192)"/>
<path d="M0 0 C-1.26239712 0.86658615 -2.53527501 1.71792059 -3.8125 2.5625 C-4.87404297 3.27599609 -4.87404297 3.27599609 -5.95703125 4.00390625 C-8 5 -8 5 -11 4 C-10.34 3.67 -9.68 3.34 -9 3 C-9 2.34 -9 1.68 -9 1 C-3.375 -1.125 -3.375 -1.125 0 0 Z " fill="#65B2E2" transform="translate(217,150)"/>
<path d="M0 0 C2.31 0.33 4.62 0.66 7 1 C7.66 2.65 8.32 4.3 9 6 C6.13275314 5.42655063 5.1385485 5.1385485 3 3 C2.01 2.67 1.02 2.34 0 2 C0 1.34 0 0.68 0 0 Z " fill="#434749" transform="translate(276,58)"/>
<path d="M0 0 C0.66 0.33 1.32 0.66 2 1 C-0.55022856 3.97526665 -3.40293526 5.50122302 -7 7 C-7.99 6.67 -8.98 6.34 -10 6 C-8.3811004 4.96951963 -6.75467511 3.95085322 -5.125 2.9375 C-4.22007812 2.36902344 -3.31515625 1.80054688 -2.3828125 1.21484375 C-1.20332031 0.61349609 -1.20332031 0.61349609 0 0 Z " fill="#4299D5" transform="translate(316,383)"/>
<path d="M0 0 C2.78637633 4.1795645 1.79562512 6.14668677 1 11 C0.34 11 -0.32 11 -1 11 C-1.14285714 3.57142857 -1.14285714 3.57142857 0 0 Z " fill="#449FE0" transform="translate(362,281)"/>
<path d="M0 0 C0 0.99 0 1.98 0 3 C-6.625 4 -6.625 4 -10 4 C-3.56521739 0 -3.56521739 0 0 0 Z " fill="#45484B" transform="translate(297,175)"/>
<path d="M0 0 C2.31 1.98 4.62 3.96 7 6 C4 7 4 7 1 6 C0.67 4.02 0.34 2.04 0 0 Z " fill="#44A1E3" transform="translate(354,151)"/>
<path d="M0 0 C2.60590285 1.30295142 2.96190955 2.2991275 4 5 C4.1953125 7.796875 4.1953125 7.796875 4.125 10.75 C4.10695313 11.73484375 4.08890625 12.7196875 4.0703125 13.734375 C4.03550781 14.85585937 4.03550781 14.85585937 4 16 C3.67 16 3.34 16 3 16 C2.92652344 15.07767578 2.92652344 15.07767578 2.8515625 14.13671875 C2.77679688 13.32847656 2.70203125 12.52023438 2.625 11.6875 C2.55539062 10.88699219 2.48578125 10.08648437 2.4140625 9.26171875 C2.10435574 6.72775559 2.10435574 6.72775559 0 4 C0 2.68 0 1.36 0 0 Z " fill="#94989B" transform="translate(285,64)"/>
<path d="M0 0 C0.66 0.33 1.32 0.66 2 1 C1.67 1.66 1.34 2.32 1 3 C1.66 3.33 2.32 3.66 3 4 C2.4225 4.0825 1.845 4.165 1.25 4.25 C-1.6159304 5.20531013 -2.9990764 6.78469173 -5 9 C-3.90931332 5.22454612 -3.0916909 2.52956528 0 0 Z " fill="#5F6162" transform="translate(252,58)"/>
<path d="M0 0 C-1.8125 2 -1.8125 2 -4 4 C-4.99 4 -5.98 4 -7 4 C-6.625 2.0625 -6.625 2.0625 -6 0 C-3.50907189 -1.24546405 -2.58919267 -0.7767578 0 0 Z " fill="#34393B" transform="translate(260,57)"/>
<path d="M0 0 C0.66 0.33 1.32 0.66 2 1 C1.39009109 4.55780196 0.4216319 7.6828589 -1 11 C-1.33 11 -1.66 11 -2 11 C-2.19622241 6.78121808 -1.80230168 3.82989106 0 0 Z " fill="#5DABE3" transform="translate(373,320)"/>
<path d="M0 0 C0.33 0 0.66 0 1 0 C1.22174933 1.45635371 1.42698698 2.91522956 1.625 4.375 C1.74101562 5.18710937 1.85703125 5.99921875 1.9765625 6.8359375 C1.98429688 7.55007813 1.99203125 8.26421875 2 9 C1.34 9.66 0.68 10.32 0 11 C-1.16461426 7.50615721 -1.13568319 4.66344611 -1 1 C-0.67 0.67 -0.34 0.34 0 0 Z " fill="#495052" transform="translate(218,274)"/>
<path d="M0 0 C3.3 0.33 6.6 0.66 10 1 C10 1.33 10 1.66 10 2 C4.06 2.495 4.06 2.495 -2 3 C-1.34 2.67 -0.68 2.34 0 2 C0 1.34 0 0.68 0 0 Z " fill="#626667" transform="translate(320,231)"/>
<path d="M0 0 C1.60332791 -0.08121924 3.20784026 -0.13929134 4.8125 -0.1875 C6.15248047 -0.23970703 6.15248047 -0.23970703 7.51953125 -0.29296875 C10.41647515 0.04918998 11.22555028 0.75393573 13 3 C10.0845524 3 7.65845519 2.59136731 4.8125 2 C3.91144531 1.814375 3.01039063 1.62875 2.08203125 1.4375 C1.39496094 1.293125 0.70789063 1.14875 0 1 C0 0.67 0 0.34 0 0 Z " fill="#DFB75C" transform="translate(223,187)"/>
<path d="M0 0 C-0.93972656 0.09087891 -0.93972656 0.09087891 -1.8984375 0.18359375 C-2.71570313 0.26738281 -3.53296875 0.35117188 -4.375 0.4375 C-5.18710938 0.51871094 -5.99921875 0.59992188 -6.8359375 0.68359375 C-9.04272805 0.89090114 -9.04272805 0.89090114 -11 2 C-13.125 1.0625 -13.125 1.0625 -15 0 C-13.25360243 -0.39143394 -11.50264082 -0.76254287 -9.75 -1.125 C-8.77546875 -1.33382812 -7.8009375 -1.54265625 -6.796875 -1.7578125 C-3.76557234 -2.0202996 -2.51982654 -1.61988849 0 0 Z " fill="#4B4D4F" transform="translate(232,174)"/>
<path d="M0 0 C0.33 0 0.66 0 1 0 C1 1.65 1 3.3 1 5 C0.34 5 -0.32 5 -1 5 C-1 5.99 -1 6.98 -1 8 C-1.66 8 -2.32 8 -3 8 C-3 8.66 -3 9.32 -3 10 C-3.66 10 -4.32 10 -5 10 C-3.66654496 6.40992874 -2.1056769 3.20429093 0 0 Z " fill="#4E9FE2" transform="translate(168,164)"/>
<path d="M0 0 C1.65 0 3.3 0 5 0 C3.75023244 3.65316671 3.32901247 4.78065836 0 7 C0 4.69 0 2.38 0 0 Z " fill="#48A6E4" transform="translate(358,345)"/>
<path d="M0 0 C1.32 0 2.64 0 4 0 C3 3 3 3 0 5 C-0.99 5 -1.98 5 -3 5 C-1.125 1.125 -1.125 1.125 0 0 Z " fill="#4F5254" transform="translate(276,287)"/>
<path d="M0 0 C2.25 0.25 2.25 0.25 4 1 C2.25 3.0625 2.25 3.0625 0 5 C-2.25 4.75 -2.25 4.75 -4 4 C-2.25 1.9375 -2.25 1.9375 0 0 Z " fill="#616568" transform="translate(289,255)"/>
<path d="M0 0 C0.33 0 0.66 0 1 0 C1.125 6.75 1.125 6.75 0 9 C-0.66 9 -1.32 9 -2 9 C-1.125 1.125 -1.125 1.125 0 0 Z " fill="#66B1DF" transform="translate(136,221)"/>
<path d="M0 0 C0.33 0 0.66 0 1 0 C0.91291331 1.45945288 0.80473093 2.91765868 0.6875 4.375 C0.62949219 5.18710938 0.57148438 5.99921875 0.51171875 6.8359375 C0 9 0 9 -3 11 C-2.44894091 7.0507432 -1.61064629 3.65079826 0 0 Z " fill="#5FA8DE" transform="translate(158,182)"/>
<path d="M0 0 C2.4375 0.75 2.4375 0.75 5 2 C5.8125 4.125 5.8125 4.125 6 6 C4.125 5.8125 4.125 5.8125 2 5 C0.75 2.4375 0.75 2.4375 0 0 Z " fill="#45A0DC" transform="translate(344,170)"/>
<path d="M0 0 C-0.66 0 -1.32 0 -2 0 C-2.33 0.99 -2.66 1.98 -3 3 C-4.65 3.33 -6.3 3.66 -8 4 C-7.67 2.68 -7.34 1.36 -7 0 C-3.98968256 -0.93423645 -3.13349732 -1.04449911 0 0 Z " fill="#379AE0" transform="translate(225,145)"/>
<path d="M0 0 C0.33 0 0.66 0 1 0 C1.144375 1.11375 1.28875 2.2275 1.4375 3.375 C1.78372035 6.82142047 1.78372035 6.82142047 3 9 C2.72057545 10.67654729 2.39171753 12.34608154 2 14 C0 12 0 12 -0.1953125 9.1796875 C-0.17210937 8.08914062 -0.14890625 6.99859375 -0.125 5.875 C-0.10695312 4.77929688 -0.08890625 3.68359375 -0.0703125 2.5546875 C-0.04710937 1.71164063 -0.02390625 0.86859375 0 0 Z " fill="#6C6D6E" transform="translate(245,69)"/>
<path d="M0 0 C1.65 0 3.3 0 5 0 C2.47211993 2.79872437 0.79588866 4.45773019 -3 5 C-3 4.34 -3 3.68 -3 3 C-2.34 3 -1.68 3 -1 3 C-0.67 2.01 -0.34 1.02 0 0 Z " fill="#5EAADC" transform="translate(334,372)"/>
<path d="M0 0 C-0.33 2.64 -0.66 5.28 -1 8 C-1.66 8 -2.32 8 -3 8 C-3 5.69 -3 3.38 -3 1 C-1 0 -1 0 0 0 Z " fill="#4095D7" transform="translate(377,313)"/>
<path d="M0 0 C2.4375 0.8125 2.4375 0.8125 5 2 C5.33 2.99 5.66 3.98 6 5 C4.02 5 2.04 5 0 5 C0 3.35 0 1.7 0 0 Z " fill="#515455" transform="translate(274,279)"/>
<path d="M0 0 C0.33 1.32 0.66 2.64 1 4 C-0.65 5.32 -2.3 6.64 -4 8 C-3.67 6.35 -3.34 4.7 -3 3 C-2.34 3 -1.68 3 -1 3 C-0.67 2.01 -0.34 1.02 0 0 Z " fill="#4A5358" transform="translate(247,220)"/>
<path d="M0 0 C0.99 0 1.98 0 3 0 C1.8141763 3.37503669 0.72426311 5.64722731 -2 8 C-2 6.35 -2 4.7 -2 3 C-1.34 3 -0.68 3 0 3 C0 2.01 0 1.02 0 0 Z " fill="#56AEE0" transform="translate(182,176)"/>
<path d="M0 0 C4.75286041 4.29290618 4.75286041 4.29290618 5 8 C4.34 8.66 3.68 9.32 3 10 C2.01 6.7 1.02 3.4 0 0 Z " fill="#51A1DE" transform="translate(367,167)"/>
<path d="M0 0 C2.31 0 4.62 0 7 0 C7.66 1.32 8.32 2.64 9 4 C6.03 3.01 3.06 2.02 0 1 C0 0.67 0 0.34 0 0 Z " fill="#51A5E6" transform="translate(306,145)"/>
<path d="M0 0 C0.66 0 1.32 0 2 0 C2 0.66 2 1.32 2 2 C2.99 2 3.98 2 5 2 C5.33 4.31 5.66 6.62 6 9 C3.03134491 6.45543849 1.6380249 3.51005335 0 0 Z " fill="#63B2E8" transform="translate(168,340)"/>
<path d="M0 0 C1.32 0 2.64 0 4 0 C4 0.66 4 1.32 4 2 C5.32 2.33 6.64 2.66 8 3 C7 4 7 4 4.4375 4.0625 C3.2309375 4.0315625 3.2309375 4.0315625 2 4 C1.34 2.68 0.68 1.36 0 0 Z " fill="#424649" transform="translate(285,308)"/>
<path d="M0 0 C2.39073445 3.82517513 2.55966552 7.59665524 3 12 C1.09598862 10.09598862 0.06479561 8.66574314 -0.19921875 5.953125 C-0.1886578 3.96766727 -0.09915043 1.9830086 0 0 Z " fill="#78B9E9" transform="translate(379,191)"/>
<path d="M0 0 C2.58949269 1.29474635 2.96035764 2.32663393 4 5 C4.125 7.75 4.125 7.75 4 10 C1.16625119 6.79663178 0.4794463 4.21912747 0 0 Z " fill="#55A6DF" transform="translate(354,183)"/>
<path d="M0 0 C1 3 1 3 -0.3125 5.6875 C-0.869375 6.450625 -1.42625 7.21375 -2 8 C-2.66 8 -3.32 8 -4 8 C-3.40138258 5.64828869 -2.73075648 3.3140622 -2 1 C-1.34 0.67 -0.68 0.34 0 0 Z " fill="#0C8BE1" transform="translate(197,157)"/>
<path d="M0 0 C1 2 1 2 0.375 3.9375 C-1.35198322 6.52797483 -3.2734275 7.56496184 -6 9 C-4.47291037 5.56404834 -2.40072955 2.88087546 0 0 Z " fill="#87C3E8" transform="translate(352,305)"/>
<path d="M0 0 C0.99 0.33 1.98 0.66 3 1 C4.1875 4.0625 4.1875 4.0625 5 7 C4.01 7 3.02 7 2 7 C0.5393715 4.35261084 0 3.10551666 0 0 Z " fill="#424447" transform="translate(196,214)"/>
<path d="M0 0 C0.99 0.33 1.98 0.66 3 1 C2.01 2.98 1.02 4.96 0 7 C-0.66 7 -1.32 7 -2 7 C-1.42415568 4.61435923 -0.77772405 2.33317216 0 0 Z " fill="#4E9FD7" transform="translate(177,185)"/>
<path d="M0 0 C0.33 1.32 0.66 2.64 1 4 C1.99 4 2.98 4 4 4 C3.67 5.32 3.34 6.64 3 8 C0.52557871 5.84832931 -0.56238367 4.28212246 -1 1 C-0.67 0.67 -0.34 0.34 0 0 Z " fill="#626769" transform="translate(248,82)"/>
</svg>
